<svg xmlns="http://www.w3.org/2000/svg" viewBox="0 0 462.68 90.59"><defs><style>.cls-1{fill:#c1272d;}.cls-2{fill:#cf4121;}.cls-3{fill:#eb7d1e;}.cls-4{fill:#e15d18;}.cls-5{fill:#f79514;}.cls-6{fill:#ffa51e;}.cls-7{fill:#4f4f51;}</style></defs><title>Asset 7</title><g id="Layer_2" data-name="Layer 2"><g id="Layer_1-2" data-name="Layer 1"><path class="cls-1" d="M21.1,57l50-50c0-.06,7.51-7,17.37-7,6.19,0,12,2.71,17.4,8.07,17.26,17.27,1.86,34.09,1.2,34.8L61,88.92a5.63,5.63,0,0,1-8,0l0,0h0Z"/><polygon class="cls-2" points="47.07 11.18 55.59 19.69 24.28 51.02 47.07 11.18"/><path class="cls-3" d="M19.23,1a21.13,21.13,0,0,1,6.31-1,23.32,23.32,0,0,1,8.18,1.54L20.51,50.18Z"/><path class="cls-4" d="M35.58,2.31A29.29,29.29,0,0,1,42.92,7L45.6,9.71l-22.9,40Z"/><path class="cls-5" d="M5.23,11.37a35,35,0,0,1,2.91-3.3,28.9,28.9,0,0,1,9.11-6.36l1.27,48.76Z"/><path class="cls-6" d="M6.91,42.81c-.53-.57-13-14.18-3.11-29.46l13.56,39.9Z"/><path class="cls-7" d="M142.85,31.77c3.8,0,5.36-1.6,5.36-4.16,0-6.72-13.07-3.44-13.07-13.44C135.14,8.85,138.48,6,144,6a11.55,11.55,0,0,1,6.57,1.8,7.45,7.45,0,0,1,.84,4.64,12.61,12.61,0,0,0-7.15-2.36c-3.11,0-4.59,1.32-4.59,3.44,0,6.32,13,3.28,13,13.48,0,6.72-4.48,8.92-9.92,8.92a15.32,15.32,0,0,1-7.52-1.72,8,8,0,0,1-.84-4.76A16.7,16.7,0,0,0,142.85,31.77Z"/><path class="cls-7" d="M168.69,32.73c-.76,1.56-2.47,3.08-6,3.08-3,0-6.39-1.12-6.39-7.68V16.05a8.41,8.41,0,0,1,4.37-.92V27.41c0,2.68.8,4.16,3.46,4.16a4.93,4.93,0,0,0,4.33-2.12V15.69a4.57,4.57,0,0,1,2.17-.36,4.63,4.63,0,0,1,2.2.36v19a6.81,6.81,0,0,1-3.38.72l-.53-2.64Z"/><path class="cls-7" d="M182.75,34.77a4.63,4.63,0,0,1-2.2.36,4.57,4.57,0,0,1-2.17-.36v-19a7.37,7.37,0,0,1,3.53-.72l.27,3.12h.23c.87-2,2.81-3.56,6.34-3.56,2.93,0,6.31,1.08,6.31,7.6V34.77a4.63,4.63,0,0,1-2.2.36,4.57,4.57,0,0,1-2.17-.36V23.13c0-2.64-.8-4.28-3.49-4.28a4.75,4.75,0,0,0-4.45,2.68Z"/><path class="cls-7" d="M212.12,6.37a7.82,7.82,0,0,1,4.37-1V34.65a6.68,6.68,0,0,1-3.23.72l-.61-2.52h-.22a6.12,6.12,0,0,1-5.7,3c-4.83,0-7.64-3.6-7.64-9.92,0-7.28,3.65-11.24,9.39-11.24a8.76,8.76,0,0,1,3.64.68Zm0,12.84a6.13,6.13,0,0,0-2.81-.6c-4.1,0-5.81,2.88-5.81,7s1.63,6,4.59,6a5.21,5.21,0,0,0,4-1.8Z"/><path class="cls-7" d="M225.23,26.69c.19,3.6,2.47,5.24,6.39,5.24a12.59,12.59,0,0,0,5.89-1.4,5.83,5.83,0,0,1-1.11,3.84,11.3,11.3,0,0,1-5.85,1.44c-6.34,0-9.8-4-9.8-10.36s3.57-10.8,9.38-10.8c5.25,0,7.72,3.48,7.72,8.48a11.74,11.74,0,0,1-.5,3.56Zm8.36-3.52c.27-2.4-.49-4.92-3.64-4.92-2.82,0-4.53,2-4.72,4.92Z"/><path class="cls-7" d="M251.3,14.65a4.17,4.17,0,0,1,1.9.36,5.93,5.93,0,0,1,.61,2.88,5.34,5.34,0,0,1-.27,1.92,4.74,4.74,0,0,0-2.39-.64c-2.24,0-3.76,1.44-4.6,4V34.77a4.63,4.63,0,0,1-2.2.36,4.57,4.57,0,0,1-2.17-.36v-19a7.38,7.38,0,0,1,3.54-.72l.3,3.56h.23C246.89,16.33,248.3,14.65,251.3,14.65Z"/><path class="cls-7" d="M261.18,35.81c-3.15,0-4.37-2-4.37-5.4v-24a7.82,7.82,0,0,1,4.37-1V29.73c0,1.64.61,2,1.6,2a4,4,0,0,0,2.35-.76,5.93,5.93,0,0,1-.91,4.08A5.56,5.56,0,0,1,261.18,35.81Z"/><path class="cls-7" d="M278.2,33.21c-.95,1.64-2.73,2.6-5.24,2.6-3.34,0-6.23-1.68-6.23-6.16,0-4.84,3.31-6.76,7.67-6.76a10,10,0,0,1,3.65.6v-.76c0-2.92-1.18-4.08-3.95-4.08a11.43,11.43,0,0,0-5.93,1.72,6.39,6.39,0,0,1,.5-4.36,12.82,12.82,0,0,1,6.23-1.36c5,0,7.48,2,7.48,7.72v7.88c0,1.2.54,1.48,1.3,1.48a3,3,0,0,0,1.71-.52,6.29,6.29,0,0,1-.8,3.8,5,5,0,0,1-2.81.8,3,3,0,0,1-3.35-2.6Zm-.11-6.36a8,8,0,0,0-2.93-.52c-2.69,0-4.1,1.24-4.1,3s1.37,2.56,3.19,2.56a4.5,4.5,0,0,0,3.84-1.76Z"/><path class="cls-7" d="M292.8,34.77a4.68,4.68,0,0,1-2.21.36,4.52,4.52,0,0,1-2.16-.36v-19a7.34,7.34,0,0,1,3.53-.72l.27,3.12h.22c.88-2,2.82-3.56,6.35-3.56,2.93,0,6.31,1.08,6.31,7.6V34.77a4.68,4.68,0,0,1-2.21.36,4.55,4.55,0,0,1-2.16-.36V23.13c0-2.64-.8-4.28-3.5-4.28a4.74,4.74,0,0,0-4.44,2.68Z"/><path class="cls-7" d="M322.17,6.37a7.82,7.82,0,0,1,4.37-1V34.65a6.7,6.7,0,0,1-3.23.72l-.61-2.52h-.23c-1.06,1.92-3.07,3-5.7,3-4.82,0-7.63-3.6-7.63-9.92,0-7.28,3.64-11.24,9.38-11.24a8.85,8.85,0,0,1,3.65.68Zm0,12.84a6.13,6.13,0,0,0-2.81-.6c-4.11,0-5.82,2.88-5.82,7s1.64,6,4.6,6a5.24,5.24,0,0,0,4-1.8Z"/><path class="cls-7" d="M352.3,10.25c-5.55,0-9.5,3.24-9.5,10.76s3.8,10.56,9.2,10.56a15.3,15.3,0,0,0,6.57-1.52,7.47,7.47,0,0,1-1.21,4.4,15.22,15.22,0,0,1-6.73,1.48c-7.83,0-12.5-5.48-12.5-14.6,0-10,5.51-15.32,13.34-15.32a11.45,11.45,0,0,1,5.81,1.32,7.35,7.35,0,0,1,.91,4.48A11.83,11.83,0,0,0,352.3,10.25Z"/><path class="cls-7" d="M372.37,33.21c-.95,1.64-2.74,2.6-5.25,2.6-3.34,0-6.23-1.68-6.23-6.16,0-4.84,3.31-6.76,7.68-6.76a10,10,0,0,1,3.64.6v-.76c0-2.92-1.17-4.08-3.95-4.08a11.37,11.37,0,0,0-5.92,1.72,6.38,6.38,0,0,1,.49-4.36,12.82,12.82,0,0,1,6.23-1.36c5,0,7.49,2,7.49,7.72v7.88c0,1.2.53,1.48,1.29,1.48a3,3,0,0,0,1.71-.52,6.29,6.29,0,0,1-.8,3.8,5,5,0,0,1-2.81.8,3,3,0,0,1-3.35-2.6Zm-.12-6.36a8,8,0,0,0-2.92-.52c-2.7,0-4.11,1.24-4.11,3s1.37,2.56,3.19,2.56a4.5,4.5,0,0,0,3.84-1.76Z"/><path class="cls-7" d="M391.71,14.65a4.17,4.17,0,0,1,1.9.36,5.93,5.93,0,0,1,.61,2.88,5.34,5.34,0,0,1-.27,1.92,4.74,4.74,0,0,0-2.39-.64c-2.25,0-3.77,1.44-4.6,4V34.77a4.65,4.65,0,0,1-2.21.36,4.55,4.55,0,0,1-2.16-.36v-19a7.37,7.37,0,0,1,3.53-.72l.31,3.56h.22C387.3,16.33,388.71,14.65,391.71,14.65Z"/><path class="cls-7" d="M408.47,6.37a7.76,7.76,0,0,1,4.36-1V34.65a6.66,6.66,0,0,1-3.22.72L409,32.85h-.23a6.11,6.11,0,0,1-5.7,3c-4.83,0-7.64-3.6-7.64-9.92,0-7.28,3.65-11.24,9.39-11.24a8.85,8.85,0,0,1,3.65.68Zm0,12.84a6.1,6.1,0,0,0-2.81-.6c-4.1,0-5.81,2.88-5.81,7s1.63,6,4.6,6a5.2,5.2,0,0,0,4-1.8Z"/><path class="cls-7" d="M423.29,8.77a2.59,2.59,0,0,1-2.74,2.88,2.53,2.53,0,0,1-2.7-2.84,2.65,2.65,0,0,1,2.74-3A2.59,2.59,0,0,1,423.29,8.77Zm-4.91,6.92a6.81,6.81,0,0,1,4.37,0V34.77a6.81,6.81,0,0,1-4.37,0Z"/><path class="cls-7" d="M438.29,33.21c-1,1.64-2.73,2.6-5.24,2.6-3.34,0-6.23-1.68-6.23-6.16,0-4.84,3.31-6.76,7.67-6.76a10,10,0,0,1,3.65.6v-.76c0-2.92-1.18-4.08-3.95-4.08a11.43,11.43,0,0,0-5.93,1.72,6.39,6.39,0,0,1,.5-4.36A12.82,12.82,0,0,1,435,14.65c5,0,7.48,2,7.48,7.72v7.88c0,1.2.54,1.48,1.3,1.48a3,3,0,0,0,1.71-.52,6.29,6.29,0,0,1-.8,3.8,5,5,0,0,1-2.81.8,3,3,0,0,1-3.35-2.6Zm-.11-6.36a8,8,0,0,0-2.92-.52c-2.7,0-4.11,1.24-4.11,3s1.37,2.56,3.19,2.56a4.5,4.5,0,0,0,3.84-1.76Z"/><path class="cls-7" d="M457.75,31.65a9.67,9.67,0,0,0,4.9-1.32,6.62,6.62,0,0,1-1.18,4.28,10.54,10.54,0,0,1-5.13,1.2c-5.88,0-9.11-3.92-9.11-10.36,0-7.4,4.14-10.8,9.61-10.8a8.51,8.51,0,0,1,4.63,1.12,6.72,6.72,0,0,1,.76,4.24,7.92,7.92,0,0,0-4.52-1.32c-3.68,0-6,2-6,6.44S454.07,31.65,457.75,31.65Z"/><path class="cls-7" d="M142.85,73.77c3.8,0,5.36-1.6,5.36-4.16,0-6.72-13.07-3.44-13.07-13.44,0-5.32,3.34-8.16,8.89-8.16a11.55,11.55,0,0,1,6.57,1.8,7.45,7.45,0,0,1,.84,4.64,12.61,12.61,0,0,0-7.15-2.36c-3.11,0-4.59,1.32-4.59,3.44,0,6.32,13,3.28,13,13.48,0,6.72-4.48,8.92-9.92,8.92a15.32,15.32,0,0,1-7.52-1.72,8,8,0,0,1-.84-4.76A16.7,16.7,0,0,0,142.85,73.77Z"/><path class="cls-7" d="M168.69,74.73c-.76,1.56-2.47,3.08-6,3.08-3,0-6.39-1.12-6.39-7.68V58.05a8.41,8.41,0,0,1,4.37-.92V69.41c0,2.68.8,4.16,3.46,4.16a4.93,4.93,0,0,0,4.33-2.12V57.69a4.57,4.57,0,0,1,2.17-.36,4.63,4.63,0,0,1,2.2.36v19a6.81,6.81,0,0,1-3.38.72l-.53-2.64Z"/><path class="cls-7" d="M182.41,60.13c.83-2.08,2.89-3.48,5.81-3.48,4.45,0,7.56,3.16,7.56,9.84s-3.15,11.32-9.38,11.32a7.88,7.88,0,0,1-3.65-.72v9.15a4.61,4.61,0,0,1-2.2.37,4.55,4.55,0,0,1-2.17-.37V57.81a7.37,7.37,0,0,1,3.53-.72l.27,3Zm.3,13.08a7.72,7.72,0,0,0,2.93.56c4.06,0,5.7-2.92,5.7-6.92s-1.67-6.08-4.52-6.08a4.61,4.61,0,0,0-4.11,2.28Z"/><path class="cls-7" d="M203.88,60.13c.83-2.08,2.89-3.48,5.81-3.48,4.45,0,7.56,3.16,7.56,9.84s-3.15,11.32-9.38,11.32a7.88,7.88,0,0,1-3.65-.72v9.15a4.61,4.61,0,0,1-2.2.37,4.55,4.55,0,0,1-2.17-.37V57.81a7.37,7.37,0,0,1,3.53-.72l.27,3Zm.3,13.08a7.72,7.72,0,0,0,2.93.56c4.06,0,5.7-2.92,5.7-6.92s-1.67-6.08-4.52-6.08a4.61,4.61,0,0,0-4.11,2.28Z"/><path class="cls-7" d="M238.38,66.93c0,7.08-3.42,10.88-9,10.88-5.86,0-9.09-3.64-9.09-10.88,0-6.48,3.61-10.28,9.09-10.28S238.38,60.21,238.38,66.93Zm-9,7c3.07,0,4.55-2.64,4.55-7,0-4-1.67-6.44-4.55-6.44-3.12,0-4.64,2.48-4.64,6.44C224.74,71.37,226.3,74,229.38,74Z"/><path class="cls-7" d="M251.64,56.65a4.14,4.14,0,0,1,1.9.36,5.93,5.93,0,0,1,.61,2.88,5.12,5.12,0,0,1-.27,1.92,4.71,4.71,0,0,0-2.39-.64c-2.24,0-3.76,1.44-4.6,4V76.77a6.81,6.81,0,0,1-4.37,0v-19a7.38,7.38,0,0,1,3.54-.72l.3,3.56h.23C247.24,58.33,248.64,56.65,251.64,56.65Z"/><path class="cls-7" d="M267.45,57.45a6.82,6.82,0,0,1,0,4h-5.28v9c0,2,.49,3.2,2.62,3.2a5.86,5.86,0,0,0,3.61-1.28,6.7,6.7,0,0,1-1,4.28,6.52,6.52,0,0,1-4.06,1.2c-4.14,0-5.55-2.44-5.55-6.76v-9.6h-2.89a11.37,11.37,0,0,1,.61-4h2.28V53.09a6.88,6.88,0,0,1,4.37-1.36v5.72Z"/><path class="cls-7" d="M291,77.93c-8.39,0-13.26-5.28-13.26-14.48,0-10,5.7-15.44,14.29-15.44a13.2,13.2,0,0,1,6.42,1.36,8,8,0,0,1,.91,4.48,14.92,14.92,0,0,0-6.84-1.6c-6,0-10.1,3.2-10.1,11,0,7.36,3.72,10.48,9.15,10.48a12.33,12.33,0,0,0,4.64-.84V65.29h-6a5.17,5.17,0,0,1-.3-2,5,5,0,0,1,.3-2h10.22v14.4A20.65,20.65,0,0,1,291,77.93Z"/><path class="cls-7" d="M314.57,56.65a4.17,4.17,0,0,1,1.9.36,5.93,5.93,0,0,1,.61,2.88,5.34,5.34,0,0,1-.27,1.92,4.74,4.74,0,0,0-2.39-.64c-2.24,0-3.76,1.44-4.6,4V76.77a4.63,4.63,0,0,1-2.2.36,4.57,4.57,0,0,1-2.17-.36v-19a7.38,7.38,0,0,1,3.54-.72l.3,3.56h.23C310.16,58.33,311.57,56.65,314.57,56.65Z"/><path class="cls-7" d="M336.46,66.93c0,7.08-3.42,10.88-9,10.88-5.85,0-9.08-3.64-9.08-10.88,0-6.48,3.61-10.28,9.08-10.28S336.46,60.21,336.46,66.93Zm-9,7c3.08,0,4.56-2.64,4.56-7,0-4-1.67-6.44-4.56-6.44-3.11,0-4.63,2.48-4.63,6.44C322.82,71.37,324.37,74,327.45,74Z"/><path class="cls-7" d="M353,74.73c-.76,1.56-2.47,3.08-6,3.08-3,0-6.39-1.12-6.39-7.68V58.05a8.41,8.41,0,0,1,4.37-.92V69.41c0,2.68.8,4.16,3.46,4.16a4.93,4.93,0,0,0,4.33-2.12V57.69a4.57,4.57,0,0,1,2.17-.36,4.63,4.63,0,0,1,2.2.36v19a6.81,6.81,0,0,1-3.38.72l-.53-2.64Z"/><path class="cls-7" d="M366.67,60.13c.83-2.08,2.89-3.48,5.81-3.48,4.45,0,7.56,3.16,7.56,9.84s-3.15,11.32-9.38,11.32a7.88,7.88,0,0,1-3.65-.72v9.15a4.61,4.61,0,0,1-2.2.37,4.55,4.55,0,0,1-2.17-.37V57.81a7.37,7.37,0,0,1,3.53-.72l.27,3Zm.3,13.08a7.72,7.72,0,0,0,2.93.56c4.06,0,5.7-2.92,5.7-6.92s-1.68-6.08-4.53-6.08a4.61,4.61,0,0,0-4.1,2.28Z"/></g></g></svg>