<?xml version="1.0" encoding="utf-8"?>
<!-- Generator: Adobe Illustrator 24.1.3, SVG Export Plug-In . SVG Version: 6.00 Build 0)  -->
<svg version="1.1" id="Layer_1" xmlns="http://www.w3.org/2000/svg" xmlns:xlink="http://www.w3.org/1999/xlink" x="0px" y="0px"
	 viewBox="0 0 462.7 90.6" style="enable-background:new 0 0 462.7 90.6;" xml:space="preserve">
<style type="text/css">
	.st0{fill:#C1272D;}
	.st1{fill:#CF4121;}
	.st2{fill:#EB7D1E;}
	.st3{fill:#E15D18;}
	.st4{fill:#F79514;}
	.st5{fill:#FFA51E;}
	.st6{fill:#FFFFFF;}
</style>
<g id="Layer_2_1_">
	<g id="Layer_1-2">
		<path class="st0" d="M21.1,57l50-50c0-0.1,7.5-7,17.4-7c6.2,0,12,2.7,17.4,8.1c17.3,17.3,1.9,34.1,1.2,34.8L61,88.9
			c-2.2,2.2-5.8,2.2-8,0c0,0,0,0,0,0l0,0l0,0L21.1,57z"/>
		<polygon class="st1" points="47.1,11.2 55.6,19.7 24.3,51 		"/>
		<path class="st2" d="M19.2,1c2-0.7,4.2-1,6.3-1c2.8,0,5.6,0.5,8.2,1.5L20.5,50.2L19.2,1z"/>
		<path class="st3" d="M35.6,2.3c2.7,1.2,5.1,2.8,7.3,4.7l2.7,2.7l-22.9,40L35.6,2.3z"/>
		<path class="st4" d="M5.2,11.4c0.9-1.2,1.9-2.3,2.9-3.3c2.6-2.7,5.7-4.8,9.1-6.4l1.3,48.8L5.2,11.4z"/>
		<path class="st5" d="M6.9,42.8c-0.5-0.6-13-14.2-3.1-29.5l13.6,39.9L6.9,42.8z"/>
		<path class="st6" d="M142.9,31.8c3.8,0,5.4-1.6,5.4-4.2c0-6.7-13.1-3.4-13.1-13.4c0-5.3,3.3-8.2,8.9-8.2c2.3-0.1,4.6,0.6,6.6,1.8
			c0.8,1.4,1.1,3,0.8,4.6c-2.1-1.5-4.6-2.3-7.1-2.4c-3.1,0-4.6,1.3-4.6,3.4c0,6.3,13,3.3,13,13.5c0,6.7-4.5,8.9-9.9,8.9
			c-2.6,0.1-5.2-0.5-7.5-1.7c-0.8-1.5-1.1-3.1-0.8-4.8C137,31,139.9,31.8,142.9,31.8z"/>
		<path class="st6" d="M168.7,32.7c-0.8,1.6-2.5,3.1-6,3.1c-3,0-6.4-1.1-6.4-7.7V16c1.3-0.7,2.9-1,4.4-0.9v12.3
			c0,2.7,0.8,4.2,3.5,4.2c1.7,0.1,3.4-0.7,4.3-2.1V15.7c0.7-0.3,1.4-0.4,2.2-0.4c0.8-0.1,1.5,0.1,2.2,0.4v19c-1,0.5-2.2,0.8-3.4,0.7
			l-0.5-2.6L168.7,32.7z"/>
		<path class="st6" d="M182.8,34.8c-0.7,0.3-1.4,0.4-2.2,0.4c-0.7,0.1-1.5-0.1-2.2-0.4v-19c1.1-0.5,2.3-0.8,3.5-0.7l0.3,3.1h0.2
			c0.9-2,2.8-3.6,6.3-3.6c2.9,0,6.3,1.1,6.3,7.6v12.6c-0.7,0.3-1.4,0.4-2.2,0.4c-0.7,0.1-1.5-0.1-2.2-0.4V23.1
			c0-2.6-0.8-4.3-3.5-4.3c-1.9-0.1-3.6,1-4.4,2.7V34.8z"/>
		<path class="st6" d="M212.1,6.4c1.3-0.8,2.8-1.1,4.4-1v29.3c-1,0.5-2.1,0.8-3.2,0.7l-0.6-2.5h-0.2c-1.2,2-3.4,3.2-5.7,3
			c-4.8,0-7.6-3.6-7.6-9.9c0-7.3,3.6-11.2,9.4-11.2c1.2,0,2.5,0.2,3.6,0.7V6.4z M212.1,19.2c-0.9-0.4-1.8-0.6-2.8-0.6
			c-4.1,0-5.8,2.9-5.8,7s1.6,6,4.6,6c1.5,0,3-0.6,4-1.8L212.1,19.2z"/>
		<path class="st6" d="M225.2,26.7c0.2,3.6,2.5,5.2,6.4,5.2c2,0,4.1-0.5,5.9-1.4c0.1,1.4-0.3,2.7-1.1,3.8c-1.8,1-3.8,1.5-5.9,1.4
			c-6.3,0-9.8-4-9.8-10.4s3.6-10.8,9.4-10.8c5.3,0,7.7,3.5,7.7,8.5c0,1.2-0.2,2.4-0.5,3.6L225.2,26.7z M233.6,23.2
			c0.3-2.4-0.5-4.9-3.6-4.9c-2.8,0-4.5,2-4.7,4.9H233.6z"/>
		<path class="st6" d="M251.3,14.6c0.7,0,1.3,0.1,1.9,0.4c0.4,0.9,0.7,1.9,0.6,2.9c0,0.7-0.1,1.3-0.3,1.9c-0.7-0.4-1.6-0.6-2.4-0.6
			c-2.2,0-3.8,1.4-4.6,4v11.6c-0.7,0.3-1.4,0.4-2.2,0.4c-0.7,0.1-1.5-0.1-2.2-0.4v-19c1.1-0.5,2.3-0.8,3.5-0.7l0.3,3.6h0.2
			C246.9,16.3,248.3,14.6,251.3,14.6z"/>
		<path class="st6" d="M261.2,35.8c-3.1,0-4.4-2-4.4-5.4v-24c1.3-0.8,2.8-1.1,4.4-1v24.3c0,1.6,0.6,2,1.6,2c0.8,0,1.7-0.3,2.4-0.8
			c0.2,1.4-0.1,2.9-0.9,4.1C263.3,35.6,262.2,35.9,261.2,35.8z"/>
		<path class="st6" d="M278.2,33.2c-1,1.6-2.7,2.6-5.2,2.6c-3.3,0-6.2-1.7-6.2-6.2c0-4.8,3.3-6.8,7.7-6.8c1.2,0,2.5,0.2,3.6,0.6
			v-0.8c0-2.9-1.2-4.1-4-4.1c-2.1,0-4.1,0.6-5.9,1.7c-0.4-1.5-0.2-3,0.5-4.4c1.9-1,4.1-1.4,6.2-1.4c5,0,7.5,2,7.5,7.7v7.9
			c0,1.2,0.5,1.5,1.3,1.5c0.6,0,1.2-0.2,1.7-0.5c0.1,1.3-0.1,2.6-0.8,3.8c-0.8,0.5-1.8,0.8-2.8,0.8c-1.6,0.2-3.1-1-3.4-2.6
			L278.2,33.2z M278.1,26.8c-0.9-0.4-1.9-0.5-2.9-0.5c-2.7,0-4.1,1.2-4.1,3s1.4,2.6,3.2,2.6c1.5,0.1,2.9-0.6,3.8-1.8V26.8z"/>
		<path class="st6" d="M292.8,34.8c-0.7,0.3-1.5,0.4-2.2,0.4c-0.7,0.1-1.5-0.1-2.2-0.4v-19c1.1-0.5,2.3-0.8,3.5-0.7l0.3,3.1h0.2
			c0.9-2,2.8-3.6,6.4-3.6c2.9,0,6.3,1.1,6.3,7.6v12.6c-0.7,0.3-1.5,0.4-2.2,0.4c-0.7,0.1-1.5-0.1-2.2-0.4V23.1
			c0-2.6-0.8-4.3-3.5-4.3c-1.9-0.1-3.6,1-4.4,2.7V34.8z"/>
		<path class="st6" d="M322.2,6.4c1.3-0.8,2.8-1.1,4.4-1v29.3c-1,0.5-2.1,0.8-3.2,0.7l-0.6-2.5h-0.2c-1.1,1.9-3.1,3-5.7,3
			c-4.8,0-7.6-3.6-7.6-9.9c0-7.3,3.6-11.2,9.4-11.2c1.3,0,2.5,0.2,3.6,0.7L322.2,6.4z M322.2,19.2c-0.9-0.4-1.8-0.6-2.8-0.6
			c-4.1,0-5.8,2.9-5.8,7s1.6,6,4.6,6c1.5,0,3-0.6,4-1.8L322.2,19.2z"/>
		<path class="st6" d="M352.3,10.3c-5.5,0-9.5,3.2-9.5,10.8s3.8,10.6,9.2,10.6c2.3,0,4.5-0.5,6.6-1.5c0.1,1.6-0.4,3.1-1.2,4.4
			c-2.1,1-4.4,1.5-6.7,1.5c-7.8,0-12.5-5.5-12.5-14.6c0-10,5.5-15.3,13.3-15.3c2-0.1,4,0.4,5.8,1.3c0.8,1.4,1.1,2.9,0.9,4.5
			C356.4,10.8,354.4,10.2,352.3,10.3z"/>
		<path class="st6" d="M372.4,33.2c-1,1.6-2.7,2.6-5.3,2.6c-3.3,0-6.2-1.7-6.2-6.2c0-4.8,3.3-6.8,7.7-6.8c1.2,0,2.5,0.2,3.6,0.6
			v-0.8c0-2.9-1.2-4.1-4-4.1c-2.1,0-4.1,0.6-5.9,1.7c-0.4-1.5-0.2-3,0.5-4.4c1.9-1,4.1-1.4,6.2-1.4c5,0,7.5,2,7.5,7.7v7.9
			c0,1.2,0.5,1.5,1.3,1.5c0.6,0,1.2-0.2,1.7-0.5c0.1,1.3-0.1,2.6-0.8,3.8c-0.8,0.5-1.8,0.8-2.8,0.8c-1.6,0.2-3.1-1-3.4-2.6
			L372.4,33.2z M372.3,26.8c-0.9-0.4-1.9-0.5-2.9-0.5c-2.7,0-4.1,1.2-4.1,3s1.4,2.6,3.2,2.6c1.5,0.1,2.9-0.6,3.8-1.8V26.8z"/>
		<path class="st6" d="M391.7,14.6c0.7,0,1.3,0.1,1.9,0.4c0.4,0.9,0.7,1.9,0.6,2.9c0,0.7-0.1,1.3-0.3,1.9c-0.7-0.4-1.6-0.6-2.4-0.6
			c-2.3,0-3.8,1.4-4.6,4v11.6c-0.7,0.3-1.5,0.4-2.2,0.4c-0.7,0.1-1.5-0.1-2.2-0.4v-19c1.1-0.5,2.3-0.8,3.5-0.7l0.3,3.6h0.2
			C387.3,16.3,388.7,14.6,391.7,14.6z"/>
		<path class="st6" d="M408.5,6.4c1.3-0.8,2.8-1.1,4.4-1v29.3c-1,0.5-2.1,0.8-3.2,0.7l-0.6-2.5h-0.2c-1.2,2-3.4,3.2-5.7,3
			c-4.8,0-7.6-3.6-7.6-9.9c0-7.3,3.6-11.2,9.4-11.2c1.3,0,2.5,0.2,3.6,0.7L408.5,6.4z M408.5,19.2c-0.9-0.4-1.8-0.6-2.8-0.6
			c-4.1,0-5.8,2.9-5.8,7s1.6,6,4.6,6c1.5,0,3-0.6,4-1.8L408.5,19.2z"/>
		<path class="st6" d="M423.3,8.8c0.2,1.4-0.9,2.7-2.3,2.9c-0.2,0-0.3,0-0.5,0c-1.4,0.1-2.6-0.9-2.7-2.3c0-0.2,0-0.3,0-0.5
			c-0.2-1.5,0.8-2.8,2.3-3c0.2,0,0.3,0,0.5,0c1.4-0.1,2.6,1,2.7,2.4C423.3,8.4,423.3,8.6,423.3,8.8z M418.4,15.7
			c1.4-0.5,3-0.5,4.4,0v19.1c-1.4,0.5-3,0.5-4.4,0V15.7z"/>
		<path class="st6" d="M438.3,33.2c-1,1.6-2.7,2.6-5.2,2.6c-3.3,0-6.2-1.7-6.2-6.2c0-4.8,3.3-6.8,7.7-6.8c1.2,0,2.5,0.2,3.6,0.6
			v-0.8c0-2.9-1.2-4.1-4-4.1c-2.1,0-4.1,0.6-5.9,1.7c-0.4-1.5-0.2-3,0.5-4.4c1.9-1,4.1-1.4,6.2-1.4c5,0,7.5,2,7.5,7.7v7.9
			c0,1.2,0.5,1.5,1.3,1.5c0.6,0,1.2-0.2,1.7-0.5c0.1,1.3-0.1,2.6-0.8,3.8c-0.8,0.5-1.8,0.8-2.8,0.8c-1.6,0.2-3.1-1-3.4-2.6H438.3z
			 M438.2,26.8c-0.9-0.4-1.9-0.5-2.9-0.5c-2.7,0-4.1,1.2-4.1,3s1.4,2.6,3.2,2.6c1.5,0.1,2.9-0.6,3.8-1.8V26.8z"/>
		<path class="st6" d="M457.8,31.6c1.7,0,3.4-0.5,4.9-1.3c0.1,1.5-0.3,3-1.2,4.3c-1.6,0.8-3.3,1.2-5.1,1.2c-5.9,0-9.1-3.9-9.1-10.4
			c0-7.4,4.1-10.8,9.6-10.8c1.6-0.1,3.2,0.3,4.6,1.1c0.7,1.3,1,2.8,0.8,4.2c-1.3-0.9-2.9-1.3-4.5-1.3c-3.7,0-6,2-6,6.4
			S454.1,31.6,457.8,31.6z"/>
		<path class="st6" d="M142.9,73.8c3.8,0,5.4-1.6,5.4-4.2c0-6.7-13.1-3.4-13.1-13.4c0-5.3,3.3-8.2,8.9-8.2c2.3-0.1,4.6,0.6,6.6,1.8
			c0.8,1.4,1.1,3,0.8,4.6c-2.1-1.5-4.6-2.3-7.1-2.4c-3.1,0-4.6,1.3-4.6,3.4c0,6.3,13,3.3,13,13.5c0,6.7-4.5,8.9-9.9,8.9
			c-2.6,0.1-5.2-0.5-7.5-1.7c-0.8-1.5-1.1-3.1-0.8-4.8C137,73,139.9,73.8,142.9,73.8z"/>
		<path class="st6" d="M168.7,74.7c-0.8,1.6-2.5,3.1-6,3.1c-3,0-6.4-1.1-6.4-7.7V58c1.3-0.7,2.9-1,4.4-0.9v12.3
			c0,2.7,0.8,4.2,3.5,4.2c1.7,0.1,3.4-0.7,4.3-2.1V57.7c0.7-0.3,1.4-0.4,2.2-0.4c0.8-0.1,1.5,0.1,2.2,0.4v19c-1,0.5-2.2,0.8-3.4,0.7
			l-0.5-2.6L168.7,74.7z"/>
		<path class="st6" d="M182.4,60.1c0.8-2.1,2.9-3.5,5.8-3.5c4.4,0,7.6,3.2,7.6,9.8s-3.1,11.3-9.4,11.3c-1.3,0.1-2.5-0.2-3.6-0.7v9.2
			c-0.7,0.3-1.4,0.4-2.2,0.4c-0.7,0.1-1.5-0.1-2.2-0.4V57.8c1.1-0.5,2.3-0.8,3.5-0.7l0.3,3L182.4,60.1z M182.7,73.2
			c0.9,0.4,1.9,0.6,2.9,0.6c4.1,0,5.7-2.9,5.7-6.9s-1.7-6.1-4.5-6.1c-1.7,0-3.3,0.8-4.1,2.3L182.7,73.2z"/>
		<path class="st6" d="M203.9,60.1c0.8-2.1,2.9-3.5,5.8-3.5c4.4,0,7.6,3.2,7.6,9.8s-3.1,11.3-9.4,11.3c-1.3,0.1-2.5-0.2-3.6-0.7v9.2
			c-0.7,0.3-1.4,0.4-2.2,0.4c-0.7,0.1-1.5-0.1-2.2-0.4V57.8c1.1-0.5,2.3-0.8,3.5-0.7l0.3,3L203.9,60.1z M204.2,73.2
			c0.9,0.4,1.9,0.6,2.9,0.6c4.1,0,5.7-2.9,5.7-6.9s-1.7-6.1-4.5-6.1c-1.7,0-3.3,0.8-4.1,2.3L204.2,73.2z"/>
		<path class="st6" d="M238.4,66.9c0,7.1-3.4,10.9-9,10.9c-5.9,0-9.1-3.6-9.1-10.9c0-6.5,3.6-10.3,9.1-10.3S238.4,60.2,238.4,66.9z
			 M229.4,73.9c3.1,0,4.6-2.6,4.6-7c0-4-1.7-6.4-4.6-6.4c-3.1,0-4.6,2.5-4.6,6.4C224.7,71.4,226.3,74,229.4,73.9L229.4,73.9z"/>
		<path class="st6" d="M251.6,56.7c0.7,0,1.3,0.1,1.9,0.4c0.4,0.9,0.7,1.9,0.6,2.9c0,0.7-0.1,1.3-0.3,1.9c-0.7-0.4-1.6-0.6-2.4-0.6
			c-2.2,0-3.8,1.4-4.6,4v11.6c-1.4,0.5-3,0.5-4.4,0v-19c1.1-0.5,2.3-0.8,3.5-0.7l0.3,3.6h0.2C247.2,58.3,248.6,56.7,251.6,56.7z"/>
		<path class="st6" d="M267.5,57.5c0.4,1.3,0.4,2.7,0,4h-5.3v9c0,2,0.5,3.2,2.6,3.2c1.3,0,2.6-0.5,3.6-1.3c0.2,1.5-0.2,3-1,4.3
			c-1.2,0.8-2.6,1.3-4.1,1.2c-4.1,0-5.5-2.4-5.5-6.8v-9.6h-2.9c0-1.4,0.2-2.7,0.6-4h2.3v-4.4c1.3-0.9,2.8-1.4,4.4-1.4v5.7H267.5z"/>
		<path class="st6" d="M291,77.9c-8.4,0-13.3-5.3-13.3-14.5c0-10,5.7-15.4,14.3-15.4c2.2-0.1,4.4,0.4,6.4,1.4c0.7,1.4,1,2.9,0.9,4.5
			c-2.1-1.1-4.5-1.6-6.8-1.6c-6,0-10.1,3.2-10.1,11c0,7.4,3.7,10.5,9.1,10.5c1.6,0,3.2-0.3,4.6-0.8v-7.6h-6c-0.2-0.6-0.3-1.3-0.3-2
			c0-0.7,0.1-1.4,0.3-2h10.2v14.4C297.5,77.2,294.3,77.9,291,77.9z"/>
		<path class="st6" d="M314.6,56.7c0.7,0,1.3,0.1,1.9,0.4c0.4,0.9,0.7,1.9,0.6,2.9c0,0.7-0.1,1.3-0.3,1.9c-0.7-0.4-1.6-0.6-2.4-0.6
			c-2.2,0-3.8,1.4-4.6,4v11.6c-0.7,0.3-1.4,0.4-2.2,0.4c-0.7,0.1-1.5-0.1-2.2-0.4v-19c1.1-0.5,2.3-0.8,3.5-0.7l0.3,3.6h0.2
			C310.2,58.3,311.6,56.7,314.6,56.7z"/>
		<path class="st6" d="M336.5,66.9c0,7.1-3.4,10.9-9,10.9c-5.9,0-9.1-3.6-9.1-10.9c0-6.5,3.6-10.3,9.1-10.3S336.5,60.2,336.5,66.9z
			 M327.5,73.9c3.1,0,4.6-2.6,4.6-7c0-4-1.7-6.4-4.6-6.4c-3.1,0-4.6,2.5-4.6,6.4C322.8,71.4,324.4,74,327.5,73.9L327.5,73.9z"/>
		<path class="st6" d="M353,74.7c-0.8,1.6-2.5,3.1-6,3.1c-3,0-6.4-1.1-6.4-7.7V58c1.3-0.7,2.9-1,4.4-0.9v12.3c0,2.7,0.8,4.2,3.5,4.2
			c1.7,0.1,3.4-0.7,4.3-2.1V57.7c0.7-0.3,1.4-0.4,2.2-0.4c0.8-0.1,1.5,0.1,2.2,0.4v19c-1,0.5-2.2,0.8-3.4,0.7l-0.5-2.6L353,74.7z"/>
		<path class="st6" d="M366.7,60.1c0.8-2.1,2.9-3.5,5.8-3.5c4.5,0,7.6,3.2,7.6,9.8s-3.1,11.3-9.4,11.3c-1.3,0.1-2.5-0.2-3.6-0.7v9.2
			c-0.7,0.3-1.4,0.4-2.2,0.4c-0.7,0.1-1.5-0.1-2.2-0.4V57.8c1.1-0.5,2.3-0.8,3.5-0.7l0.3,3L366.7,60.1z M367,73.2
			c0.9,0.4,1.9,0.6,2.9,0.6c4.1,0,5.7-2.9,5.7-6.9s-1.7-6.1-4.5-6.1c-1.7,0-3.3,0.8-4.1,2.3V73.2z"/>
	</g>
</g>
</svg>
