<svg xmlns="http://www.w3.org/2000/svg" viewBox="0 0 114.05 90.57"><defs><style>.a{fill:#c1272d;}.b{fill:#cf4121;}.c{fill:#eb7d1e;}.d{fill:#e15d18;}.e{fill:#f79514;}.f{fill:#ffa51e;}</style></defs><title>scsg-icon</title><path class="a" d="M28.09,74.21l50-50c0-.06,7.51-7,17.37-7,6.19,0,12,2.71,17.4,8.07,17.26,17.27,1.86,34.09,1.2,34.8L68,106.11a5.63,5.63,0,0,1-8,0Z" transform="translate(-6.99 -17.19)"/><polygon class="b" points="47.07 11.18 55.59 19.69 24.28 51.02 47.07 11.18"/><path class="c" d="M26.22,18.17a20.89,20.89,0,0,1,6.31-1,23.43,23.43,0,0,1,8.18,1.54L27.5,67.37Z" transform="translate(-6.99 -17.19)"/><path class="d" d="M42.57,19.5a29.53,29.53,0,0,1,7.34,4.73l2.68,2.67-22.9,40Z" transform="translate(-6.99 -17.19)"/><path class="e" d="M12.22,28.56a34.7,34.7,0,0,1,2.91-3.3,28.85,28.85,0,0,1,9.11-6.36l1.27,48.76Z" transform="translate(-6.99 -17.19)"/><path class="f" d="M13.9,60c-.53-.57-13-14.18-3.11-29.46l13.56,39.9Z" transform="translate(-6.99 -17.19)"/></svg>