<svg xmlns="http://www.w3.org/2000/svg" viewBox="0 0 35.04 28.44"><defs><style>.cls-1{fill:#949494;}</style></defs><g id="Layer_2" data-name="Layer 2"><g id="Layer_1-2" data-name="Layer 1"><path class="cls-1" d="M31.44,7.12V8a20.79,20.79,0,0,1-1.32,7.2A21.43,21.43,0,0,1,26.2,21.8a19.53,19.53,0,0,1-6.4,4.8A20.81,20.81,0,0,1,11,28.44,20.47,20.47,0,0,1,5.2,27.6,19.82,19.82,0,0,1,0,25.24c.56.05,1.13.08,1.72.08a14.37,14.37,0,0,0,4.76-.8,14.78,14.78,0,0,0,4.16-2.24,7.16,7.16,0,0,1-4.16-1.46A6.89,6.89,0,0,1,4,17.28a7.2,7.2,0,0,0,1.32.12,7.4,7.4,0,0,0,1.88-.24,6.89,6.89,0,0,1-2.92-1.34A7.09,7.09,0,0,1,2.18,13.3a7.61,7.61,0,0,1-.78-3.18V10a6.75,6.75,0,0,0,3.28.92A7.25,7.25,0,0,1,2.34,8.34a7.06,7.06,0,0,1-.86-3.42,7.14,7.14,0,0,1,1-3.6A20.57,20.57,0,0,0,9,6.6a20.36,20.36,0,0,0,8.28,2.24,8.07,8.07,0,0,1-.16-1.64,7,7,0,0,1,1-3.6A7.23,7.23,0,0,1,20.66,1a7,7,0,0,1,3.58-1,7.11,7.11,0,0,1,5.24,2.28A14,14,0,0,0,34,.52a7,7,0,0,1-1.22,2.3,7.33,7.33,0,0,1-1.94,1.7A14.6,14.6,0,0,0,35,3.36,15.15,15.15,0,0,1,31.44,7.12Z"/></g></g></svg>