<svg xmlns="http://www.w3.org/2000/svg" viewBox="0 0 105.28 92.64"><defs><style>.cls-1{opacity:0.15;}.cls-2{fill:#c8c1e5;}.cls-3{fill:#393572;}.cls-4{fill:#fda383;}.cls-5{fill:#f9a5c1;}.cls-6{fill:#ffb288;}.cls-7{fill:#b92127;}.cls-8{fill:#ffc8e6;}.cls-9{fill:#ff5941;}.cls-10{fill:#ede5da;}.cls-11{fill:#fff;}.cls-12{fill:#f78c57;}.cls-13{fill:#693523;}.cls-14{fill:#da7451;}.cls-15{fill:#93212a;}.cls-16{fill:#ffc973;}.cls-17{fill:#ba8a58;}.cls-18{fill:#fca556;}</style></defs><g id="Layer_2" data-name="Layer 2"><g id="Ñëîé_1" data-name="Ñëîé 1"><g class="cls-1"><path class="cls-2" d="M93.57,86.21c-.95-4.42-2.83-8.1-3.95-12.4a35,35,0,0,1-.25-15.64c.15-.72.33-1.42.53-2.11.47-2.42,1.21-4.72,1.8-7a29.67,29.67,0,0,0,.64-13C90.52,26.36,85.53,19,79.18,16.94c-4.9-1.62-9.62.15-14.16-2.65-3.27-2.06-5.9-5.3-9-8.24-4.45-4-9.35-4.86-14.16-5.6a39,39,0,0,0-29,7.07C8,10.91,1.57,16.79,2.84,26.81a33.52,33.52,0,0,0,1.18,5c1.09,4.57,4,6.63,5.81,10.75A12.13,12.13,0,0,1,10.47,51C8,59.33,3.63,60.7.73,68c-2.45,6.62,1.71,19.75,6,24.61l87.39-.42A24.38,24.38,0,0,0,93.57,86.21Z"/></g><path class="cls-3" d="M61.24,30.31a5.46,5.46,0,0,0-5.46,5.46v8.45a5.46,5.46,0,0,0,10.91,0V35.77A5.45,5.45,0,0,0,61.24,30.31Z"/><path class="cls-4" d="M78.7,32.71c-.08-.39-.18-.78-.29-1.17a1.48,1.48,0,0,0-.13-.35c0-.07-.12-.15-.2-.13s-.11.15-.11.26a1.41,1.41,0,0,1,0,.58.91.91,0,0,1-.09.17l-.62,1.06s-.07.07-.1,0l-.9.4a6,6,0,0,0,0,.92l1.14.27a.89.89,0,0,1,0-.1,1,1,0,0,1,.41-.57c.19-.14.4-.26.58-.41a1,1,0,0,0,.36-.61A1.55,1.55,0,0,0,78.7,32.71Z"/><path class="cls-4" d="M76.28,34.24a20.53,20.53,0,0,1-3.17,5.13l1.72,1.11a30.43,30.43,0,0,0,2.54-5.86C77.69,33.53,76.66,33.17,76.28,34.24Z"/><path class="cls-5" d="M74.2,37.87C73.14,39.33,72.05,40.8,71,42c-1.83-4-1.3-7.07-2.86-8.14a4.1,4.1,0,0,1-1.16-.32H66.8l-.07,0a2.81,2.81,0,0,0-1.07,1.93c-.17.84.16,1.28-.1,2.11a2.33,2.33,0,0,1,0,.74c1,2.33.58,1.28,3.54,7.82a1.14,1.14,0,0,0,1.95.21,46.46,46.46,0,0,0,5.39-7.12Z"/><polygon class="cls-6" points="63.3 82.57 62.62 86.56 64.25 86.7 64.98 85.85 64.89 85.68 65.48 82.76 63.3 82.57"/><path class="cls-7" d="M66.75,86.28l-1.85-.6c-.61,1-1.63.83-2.14-.07l-.45,1.59c0,.11.11.21.28.21h3.73C67.3,87.4,67.62,86.56,66.75,86.28Z"/><polygon class="cls-6" points="57.89 82.76 55.73 82.55 54.45 85.64 54.58 86.51 55.72 86.63 56.67 85.8 56.62 85.63 57.89 82.76"/><path class="cls-7" d="M58.45,86.24l-1.84-.6c-.61,1-1.63.83-2.14-.07L54,87.16c0,.11.1.21.28.21H58C59,87.35,59.32,86.52,58.45,86.24Z"/><path class="cls-5" d="M66.81,82.16c.55-3.45,1-7.06,1.42-10.71.64-6,1-11.79,1-16,0,0,0-.22,0-.22v-.11l0-.75H62.78l-.76.09.06.77c0,.05,0,.1,0,.16a97.73,97.73,0,0,1,.83,16,76.26,76.26,0,0,1-.81,9.91c-.16,1-.27,1.5-.34,1.95a.73.73,0,0,0,.71.84l3.37,0a.73.73,0,0,0,.73-.61C66.66,83,66.74,82.6,66.81,82.16Z"/><path class="cls-8" d="M64.16,50.26c-.75-2.6-2.48-3-3.5-3h-.51l-.17.49A28.69,28.69,0,0,0,59,51.07v.1a1.33,1.33,0,0,1-.75,1.41L57.47,52l.33,1.35c.33,1.12.61,2.35.89,3.27,4.1,13.75,1.2,9-4.3,26.06A1,1,0,0,0,55,83.85l2.57.87a1,1,0,0,0,1.2-.52c4.64-10.34,7-13,7.47-17.18C66.77,62.38,66.11,57.05,64.16,50.26Z"/><path class="cls-4" d="M55.59,58.48a1.52,1.52,0,0,1-.3-.5c0-.06,0-.13,0-.19,0-.41,0-.82,0-1.23,0-.05,0-.12.06-.1a.48.48,0,0,1,.11.29v.14c0,.2,0,.41,0,.61a1,1,0,0,0,0,.42.23.23,0,0,0,.08.12.14.14,0,0,0,.15,0,.22.22,0,0,0,.05-.11c0-.17,0-.35.06-.53s.05-.5.07-.75l0-.31a2.08,2.08,0,0,0,0-.61,4.71,4.71,0,0,0-.39-1l-1.2.48c0,.06,0,.1,0,.12a1.06,1.06,0,0,1,0,.7c-.08.22-.2.43-.27.66a.94.94,0,0,0,0,.7,1.38,1.38,0,0,0,.24.3,11.35,11.35,0,0,0,.87.82,1.33,1.33,0,0,0,.3.23c.07,0,.17.06.23,0S55.66,58.56,55.59,58.48Z"/><path class="cls-8" d="M69.53,36.86c0-.06-.66-2-1-2.92a10.86,10.86,0,0,0-2.25-3.25c-2.3-1.51-4.49-.58-6,.54-4.28,2-1.78,6-1.78,6a13.84,13.84,0,0,1-.08,3.09,16.46,16.46,0,0,0-.13,2c.06,3.82-2.66,6.67.26,12.77,1.23.62,5.25,2.82,7.25,2.8,1.69,0,1.25-2.08,3.49-3.16,0-2.05.57-1.62-.29-6.68a16.08,16.08,0,0,1-.49-3.58c0-.12,0-.23,0-.35A5.72,5.72,0,0,1,69,42C70.09,41.47,70.08,39.56,69.53,36.86Z"/><path class="cls-8" d="M55.48,36.67l4,1c.54-1.11,1.1-2.18,1.72-3.2l-2.4-2.25A14.74,14.74,0,0,0,55.48,36.67Z"/><path class="cls-4" d="M54.23,55.05c.15,1.14,1.43.78,1.32-.38a35.68,35.68,0,0,1,.16-6.54l-2-.16A57.64,57.64,0,0,0,54.23,55.05Z"/><path class="cls-8" d="M55.48,36.67A24.3,24.3,0,0,0,53,47.48a.48.48,0,0,0,.43.47l2.18.18a.45.45,0,0,0,.49-.41,15.85,15.85,0,0,1,1.6-6.2c.58-1.22,1.16-2.53,1.78-3.84Z"/><path class="cls-9" d="M67.57,23.32l.06-.24a3.83,3.83,0,0,0-7-2.87A11.2,11.2,0,0,1,67.57,23.32Z"/><path class="cls-9" d="M73.62,25.62c-.36,1.17-5.1.77-10.59-.9s-9.64-4-9.28-5.16,5.09-.78,10.58.9S74,24.44,73.62,25.62Z"/><polygon class="cls-10" points="77.91 27.31 74.92 33.17 80.35 33.17 83.34 27.31 77.91 27.31"/><polygon class="cls-11" points="78.06 27.57 76.06 31.5 78.51 31.5 80.4 27.57 78.06 27.57"/><polygon class="cls-11" points="80.78 27.57 78.86 31.5 79.7 31.5 81.71 27.57 80.78 27.57"/><path class="cls-9" d="M66.38,32.35c0,1.58-2.58,2.86-2.58,2.86s-2.58-1.28-2.58-2.86a2.59,2.59,0,1,1,5.16,0Z"/><path class="cls-10" d="M67.93,23.76a1.57,1.57,0,0,1-.14-.36,25.87,25.87,0,0,0-7.74-2.63,1.2,1.2,0,0,0-.42.51,2,2,0,0,0-.1,1.42c.51,0,1.07-.59,1.49-.43a1.41,1.41,0,0,1,.36.22,2.39,2.39,0,0,1,1,1.62c.07.63-.27,1.32.09,1.85s1.07.57,1.43,1,.25,1,.39,1.44a1.92,1.92,0,0,0,2,1.33,1.69,1.69,0,0,0,1.48-1.17,4.17,4.17,0,0,1,.72-1.2,1.76,1.76,0,0,0,.52-.86,2.41,2.41,0,0,0-.47-2.08C68.41,24.2,68.13,24,67.93,23.76Z"/><path class="cls-6" d="M62,21h-.75a1.25,1.25,0,0,0,0,2.5h3.23a.26.26,0,0,0,.26-.26V22.12Z"/><path class="cls-6" d="M60.51,21.21a2.89,2.89,0,0,0-1.12,2.29v2.36a2.94,2.94,0,0,0,5.88,0V23.55Z"/><path class="cls-6" d="M64.78,31.41H63a.47.47,0,0,1-.45-.47l0-4.87A.46.46,0,0,1,63,25.6h1.8a.47.47,0,0,1,.45.48v4.86A.46.46,0,0,1,64.78,31.41Z"/><path class="cls-11" d="M61.94,26.76c0,.2-.13.45-.58.53,0,0-.65.08-.59-.41Z"/><path class="cls-10" d="M62.16,23.58h.72a.2.2,0,0,1,.19.19.19.19,0,0,1-.19.19h-.72a.19.19,0,0,1-.19-.19A.2.2,0,0,1,62.16,23.58Z"/><path class="cls-10" d="M59.55,23.58h.55a.18.18,0,0,1,.15.19.17.17,0,0,1-.15.19h-.55a.17.17,0,0,1-.15-.19A.18.18,0,0,1,59.55,23.58Z"/><path class="cls-12" d="M60.16,22.79h2.12a.11.11,0,0,0,.11-.1.11.11,0,0,0-.11-.11H60.16a.11.11,0,0,0-.1.11A.11.11,0,0,0,60.16,22.79Z"/><path class="cls-13" d="M62.27,24.46c0,.18.1.33.21.33s.22-.15.22-.33-.1-.33-.22-.33S62.27,24.28,62.27,24.46Z"/><polygon class="cls-13" points="62.48 24.13 62.12 24.13 62.34 24.35 62.48 24.13"/><path class="cls-13" d="M59.7,24.46c0,.18.1.33.22.33s.21-.15.21-.33-.1-.33-.21-.33S59.7,24.28,59.7,24.46Z"/><polygon class="cls-13" points="59.92 24.13 59.55 24.13 59.78 24.35 59.92 24.13"/><path class="cls-6" d="M65.22,24.6a1,1,0,1,1-.82,1A.92.92,0,0,1,65.22,24.6Z"/><path class="cls-10" d="M66,22.54a24.81,24.81,0,0,0-5.48-1.69c-.09.22-.36.68-.31.88s.34.23.53.25a4.47,4.47,0,0,1,3.47,1.88c.35.53.54,1.16.9,1.68a2.94,2.94,0,0,0,.89.83A1.1,1.1,0,0,0,67.69,25C67.33,24.07,66.45,23.43,66,22.54Z"/><path class="cls-12" d="M60.58,25.64l.47-1.11.28,1.32a.22.22,0,0,1-.28.27L60.77,26A.29.29,0,0,1,60.58,25.64Z"/><path class="cls-10" d="M60.05,20.77s3.39-.54,7.74,2.63Z"/><path class="cls-4" d="M77.14,33.17a.46.46,0,0,1,.07-.3l.07-.11.35-.51a1,1,0,0,0,.19-.37.26.26,0,0,0,0-.15s-.07-.09-.12-.08a.15.15,0,0,0-.1.06c-.12.13-.23.27-.34.41l-.46.6-.2.25a2.7,2.7,0,0,0-.33.5s0,.07,0,.11l.9-.4Z"/><path class="cls-2" d="M37.79,20.7a3.8,3.8,0,0,1-3.69,3.91c-2.05,0-3.67-.86-3.67-3a4.1,4.1,0,0,1,3.24-4.3A3.5,3.5,0,0,1,37.79,20.7Z"/><path class="cls-2" d="M40.46,19.44c.21.9-1.28,2-3.31,2.45s-3.86.08-4.07-.82,1.28-2,3.32-2.45S40.26,18.54,40.46,19.44Z"/><path class="cls-6" d="M43,55.48a.43.43,0,0,1-.28-.45,3.09,3.09,0,0,0,0-.75A2.33,2.33,0,0,1,42.45,53a1.08,1.08,0,0,1,.24-.52c.16-.16.41-.2.6-.34s.26-.28.43-.37.45,0,.47.15l.44.62a2,2,0,0,0,.31,1,2.88,2.88,0,0,1,.24.46.52.52,0,0,1,0,.5,8.72,8.72,0,0,1-1.58.83S43.11,55.52,43,55.48Z"/><path class="cls-6" d="M22.43,56a.43.43,0,0,0,.19-.49,2.63,2.63,0,0,1-.15-.73,2.29,2.29,0,0,0,0-1.27,1.06,1.06,0,0,0-.33-.47,5.11,5.11,0,0,0-.66-.22c-.18-.08-.32-.23-.5-.29s-.45,0-.44.23l-.34.58a2.28,2.28,0,0,1-.08,1.13A2.66,2.66,0,0,0,20,55a.53.53,0,0,0,.15.47,9.13,9.13,0,0,0,1.71.54A1.53,1.53,0,0,0,22.43,56Z"/><polygon class="cls-6" points="41.51 83.56 41.88 86.11 43.44 86.65 44.81 85.95 44.62 85.34 44.21 82.86 41.51 83.56"/><path class="cls-14" d="M46.86,85.89l-2.28-.77a1.92,1.92,0,0,1-.66.67,1.38,1.38,0,0,1-2.13-.38l-.46,1.51c0,.13.13.26.35.26l4.63.07C47.52,87.27,47.93,86.25,46.86,85.89Z"/><polygon class="cls-6" points="16.83 76.09 14.48 77.23 14.44 78.86 15.54 79.93 16.07 79.56 18.34 78.41 16.83 76.09"/><path class="cls-14" d="M16.24,81.83l0-2.38a1.82,1.82,0,0,1-.86-.41,1.33,1.33,0,0,1-.29-2.11l-1.6,0c-.14,0-.21.2-.15.41l1.37,4.35C15.11,82.88,16.22,83,16.24,81.83Z"/><path class="cls-6" d="M40.52,44.05l-1.84,2.52c.35.78,4,6.59,4.79,6.83s1.48-.43,1-1.11A48,48,0,0,1,40.52,44.05Z"/><path class="cls-15" d="M38.2,50.5c-1.6-.43-3.53.12-4,1.79-.53,1.92-1,3.58-1.33,5-2.27,8.65-2.35,9-8.12,12.45l-2,1.16c-2.21,1.31-4.48,2.67-6.63,4.21A.74.74,0,0,0,16,76.18l1.74,2.18a1.09,1.09,0,0,0,1.38.26c2.82-1.6,5.13-2.76,7.05-3.73C29.83,73.05,32,72,33.71,70c3-3.45,5.26-9.9,7.09-16.58C41.5,50.84,40,51,38.2,50.5Z"/><path class="cls-7" d="M44.5,72.45c-.09-4.14-.15-6.64-1.21-9.08-1.87-4.29-5.23-8.53-10.56-13.32a3.59,3.59,0,0,0-5.31,0c-1.16,1.25-1.54,3.27-.18,4.49,1.54,1.38,2.87,2.55,4,3.57,6.83,6,7.23,6.36,7.89,13.21.08.77.14,1.54.21,2.3a73.67,73.67,0,0,0,1.28,9.66.9.9,0,0,0,1,.69l2.54-.42a.89.89,0,0,0,.75-.93C44.85,81,44.6,77,44.5,72.45Z"/><path class="cls-16" d="M41,46.8a34.62,34.62,0,0,1-.09-5.67C41.48,33.55,39.9,31,36.3,30a10.28,10.28,0,0,0-6,0c-2.32.59-4.23,1.34-4.55,1.87-.8,1.34-1.17,2-.71,3.57,2,6.84,1.17,12.92.72,18.09a1.6,1.6,0,0,0,1.33,1.71,15.42,15.42,0,0,0,3.62.11c2.57,0,5.7-1.6,8.27-1.62l1.32,0a.81.81,0,0,0,.77-.84C41,50.3,40.94,47.57,41,46.8Z"/><path class="cls-17" d="M37.13,52.36h0Z"/><path class="cls-6" d="M20,45.86a45.43,45.43,0,0,0,.46,7.8c0,.15.37.26.82.19.62-.1,1.09-.48,1.06-.72a34.11,34.11,0,0,1,0-6.71Z"/><path class="cls-16" d="M26.72,31.11a12,12,0,0,0-4.45,4.69,22.22,22.22,0,0,0-2.88,9.48.75.75,0,0,0,.61.78l2.74.54a15.38,15.38,0,0,1,4.91-9.27,3.85,3.85,0,0,1,.76-.64C30.76,35.17,29.17,30,26.72,31.11Z"/><path class="cls-18" d="M29.06,35.78a2.27,2.27,0,0,1-.73.8,4.62,4.62,0,0,0-.79.65,15.67,15.67,0,0,0-4.93,9.35l.25,0a15.28,15.28,0,0,1,4.85-9.2,3.9,3.9,0,0,1,.75-.63,2.51,2.51,0,0,0,.82-.89Z"/><path class="cls-10" d="M31.38,20.65a1.47,1.47,0,0,0-.44,1.19,5.16,5.16,0,0,1,.16.52,1.53,1.53,0,0,1-.3.82.82.82,0,0,0-.11.83c.15.24.48.31.65.54s.1.92.47,1.12c.15.09.36.06.49.17s.17.46.36.63a.47.47,0,0,0,.53,0,1.05,1.05,0,0,0,.36-.42,1.44,1.44,0,0,0,.21-1c-.11-.4-.48-.68-.73-1a1.65,1.65,0,0,1-.13-1.86c.12-.19.28-.34.41-.52a.82.82,0,0,0,.18-.61,1.39,1.39,0,0,0-.28-.52.58.58,0,0,1-.08-.56c0-.08.13-.14.17-.22s-.07-.43-.29-.47-.32.07-.48.2A8.55,8.55,0,0,0,31.38,20.65Z"/><path class="cls-10" d="M38.16,22c.19-.28.4-.55.58-.79.71-.94-.38-2-.87-2A2.1,2.1,0,0,0,35.42,21,4.6,4.6,0,0,1,38.16,22Z"/><path class="cls-6" d="M37.05,21.82h-3.2a.26.26,0,0,1-.25-.26V19.9a.51.51,0,0,1,.5-.51h2.95a1.22,1.22,0,0,1,0,2.43Z"/><path class="cls-10" d="M31.93,25.14a3.26,3.26,0,0,0,.64,1.12,2.23,2.23,0,0,0,.66-1.59,1.09,1.09,0,0,1-.34-.88c0-.53.25-1,.56-1l.07,0L31.45,21A7.11,7.11,0,0,0,31.93,25.14Z"/><path class="cls-6" d="M32.64,22.88a1,1,0,1,0,.82,1A.91.91,0,0,0,32.64,22.88Z"/><path class="cls-6" d="M37.67,19.6a3.11,3.11,0,0,1,1.18,2.46V24.6a3.1,3.1,0,1,1-6.2,0V22.12Z"/><path class="cls-6" d="M32.49,31.11l2.36.24a.59.59,0,0,0,.65-.53l.65-6.18a.6.6,0,0,0-.53-.66l-2.36-.24a.61.61,0,0,0-.66.54L32,30.46A.58.58,0,0,0,32.49,31.11Z"/><path class="cls-10" d="M32.59,22.28l-.09,2.39a3.12,3.12,0,0,0,.71,2.24,8,8,0,0,0,1.27,1,7,7,0,0,0,2.91.17,1.67,1.67,0,0,0,1.36-1.31l.08-2.09a12.89,12.89,0,0,1-3.48,0c-1.1-.25-1.21-.47-1.54-1.53L33.14,21Z"/><path class="cls-11" d="M36.05,25.33c0,.2.14.44.62.52,0,0,.72.08.66-.39Z"/><path class="cls-10" d="M36.12,21.9h-.7a.19.19,0,0,0-.19.18.2.2,0,0,0,.19.19h.7a.19.19,0,0,0,.19-.19A.18.18,0,0,0,36.12,21.9Z"/><path class="cls-10" d="M38.9,21.9h-.71a.18.18,0,0,0-.18.18.19.19,0,0,0,.18.19h.71a.19.19,0,0,0,.18-.19A.18.18,0,0,0,38.9,21.9Z"/><path class="cls-13" d="M38.42,22.75c0,.18-.1.33-.22.33s-.21-.15-.21-.33.09-.33.21-.33S38.42,22.57,38.42,22.75Z"/><path class="cls-13" d="M35.78,22.8c0,.18-.1.33-.22.33s-.21-.15-.21-.33.1-.33.21-.33S35.78,22.62,35.78,22.8Z"/><path class="cls-6" d="M37.57,19.54a4.82,4.82,0,0,0-3.46-.28l.78.66Z"/><path class="cls-10" d="M35.1,19.71a1,1,0,0,0-.79-.77A2.59,2.59,0,0,0,31.45,21l2.07,1.84,0-.54a2,2,0,0,1,.93-1.25,1.68,1.68,0,0,0,.68-1.31Z"/><path class="cls-12" d="M37.8,21.61H36.71a.1.1,0,0,1-.1-.1.11.11,0,0,1,.1-.1H37.8a.11.11,0,0,1,.1.1A.1.1,0,0,1,37.8,21.61Z"/><path class="cls-12" d="M38.09,21.13H36a.1.1,0,0,1-.1-.1.09.09,0,0,1,.1-.1h2.08a.09.09,0,0,1,.1.1A.1.1,0,0,1,38.09,21.13Z"/><path class="cls-12" d="M37.62,23.91,37,22.5l-.36,1.67a.29.29,0,0,0,.36.34l.37-.1A.37.37,0,0,0,37.62,23.91Z"/><path class="cls-2" d="M31,22.83a14,14,0,0,1,4-3.74l-.78-.53-2.31.51-1.13,2Z"/><path class="cls-3" d="M57.88,42.71l-.43-.26c2.55-4.33.87-11.18.86-11.25l.48-.12C58.86,31.37,60.54,38.2,57.88,42.71Z"/><path class="cls-11" d="M33.46,7.44H40a51.94,51.94,0,0,1,8.17.44c.82.15,1.55.33,2.36.48A39.8,39.8,0,0,0,61,8.39c1.73-.2,3.39-.45,5.18-.58s3.69-.13,5.55-.12c8.3.06,16.58.32,24.88.31a31.53,31.53,0,0,0,8-.7,1.49,1.49,0,0,0,.66-.32c.12-.17-.09-.34-.41-.49-1.55-.71-4.92-.72-7.73-.66s-6.21,0-7.63-.72c-.58-.3-.7-.67-1.38-1a13.5,13.5,0,0,0-3.38-.57q-3.51-.31-7.11-.51A33.52,33.52,0,0,0,73.86,3c-2.42.13-4.26.72-6.5,1-5.45.74-12.15-.29-17.68.39-1.71.21-3.17.57-4.87.78-5.42.68-11-.19-16.44.08-1.86.09-2.83.36-2.47,1C26.55,7.32,30.53,7.44,33.46,7.44Z"/></g></g></svg>