<svg xmlns="http://www.w3.org/2000/svg" viewBox="0 0 80.81 81.06"><defs><style>.cls-1{fill:#393572;}.cls-2{fill:#fda383;}.cls-3{fill:#f9a5c1;}.cls-4{fill:#ffb288;}.cls-5{fill:#b92127;}.cls-6{fill:#ffc8e6;}.cls-7{fill:#ff5941;}.cls-8{fill:#ede5da;}.cls-9{fill:#fff;}.cls-10{fill:#f78c57;}.cls-11{fill:#693523;}.cls-12{fill:#c8c1e5;}.cls-13{fill:#da7451;}.cls-14{fill:#93212a;}.cls-15{fill:#ffc973;}.cls-16{fill:#ba8a58;}.cls-17{fill:#fca556;}</style></defs><g id="Layer_2" data-name="Layer 2"><g id="Ñëîé_1" data-name="Ñëîé 1"><path class="cls-1" d="M55.28,15.13a6.3,6.3,0,0,0-6.3,6.3v9.76a6.3,6.3,0,1,0,12.6,0V21.43A6.3,6.3,0,0,0,55.28,15.13Z"/><path class="cls-2" d="M75.44,17.9c-.09-.45-.2-.9-.33-1.34a1.59,1.59,0,0,0-.16-.41c0-.08-.13-.17-.22-.15s-.14.18-.13.3a1.51,1.51,0,0,1,0,.67c0,.07-.07.13-.1.2l-.72,1.22s-.08.08-.12.05l-1,.46A10.64,10.64,0,0,0,72.55,20l1.32.31a.42.42,0,0,0,0-.12,1.23,1.23,0,0,1,.48-.66c.22-.17.46-.3.67-.48a1,1,0,0,0,.41-.69A1.32,1.32,0,0,0,75.44,17.9Z"/><path class="cls-2" d="M72.64,19.68A23.93,23.93,0,0,1,69,25.6l2,1.28a35.23,35.23,0,0,0,2.92-6.77C74.28,18.86,73.09,18.43,72.64,19.68Z"/><path class="cls-3" d="M70.24,23.86c-1.22,1.68-2.48,3.38-3.75,4.8-2.1-4.56-1.5-8.15-3.29-9.4a4.26,4.26,0,0,1-1.34-.36H61.7l-.08,0a3.26,3.26,0,0,0-1.23,2.23c-.2,1,.18,1.48-.12,2.44a2.75,2.75,0,0,1,.06.85c1.22,2.69.66,1.48,4.09,9a1.31,1.31,0,0,0,2.25.24,53.34,53.34,0,0,0,6.22-8.22Z"/><polygon class="cls-4" points="57.67 75.47 56.87 80.07 58.76 80.24 59.6 79.26 59.5 79.06 60.18 75.69 57.67 75.47"/><path class="cls-5" d="M61.64,79.75l-2.13-.69A1.33,1.33,0,0,1,57,79l-.52,1.84c0,.13.12.24.33.24h4.3C62.28,81,62.65,80.08,61.64,79.75Z"/><polygon class="cls-4" points="51.41 75.69 48.93 75.44 47.45 79.01 47.6 80.02 48.91 80.15 50 79.2 49.95 79.01 51.41 75.69"/><path class="cls-5" d="M52.07,79.7,49.93,79c-.69,1.21-1.88,1-2.47-.08L47,80.77c0,.12.12.24.32.24h4.31C52.71,81,53.07,80,52.07,79.7Z"/><path class="cls-3" d="M61.71,75c.64-4,1.19-8.15,1.64-12.37.74-6.89,1.18-13.61,1.21-18.48a2.09,2.09,0,0,0,0-.25s0-.09,0-.14l0-.86H57.06l-.87.11.07.88a1.37,1.37,0,0,0,0,.19,113,113,0,0,1,.95,18.44A87.29,87.29,0,0,1,56.3,74c-.18,1.12-.31,1.73-.4,2.26a.84.84,0,0,0,.82,1l3.9,0a.84.84,0,0,0,.84-.69C61.54,76,61.63,75.51,61.71,75Z"/><path class="cls-6" d="M58.66,38.17c-.87-3-2.86-3.42-4-3.44l-.59,0-.19.57a30.25,30.25,0,0,0-1.09,3.79v.11a1.51,1.51,0,0,1-.86,1.62l-.94-.71.38,1.55c.38,1.3.71,2.72,1,3.79,4.73,15.86,1.39,10.39-5,30.08a1.12,1.12,0,0,0,.7,1.4l3,1a1.13,1.13,0,0,0,1.38-.61c5.36-11.93,8.07-15,8.63-19.84C61.67,52.15,60.91,46,58.66,38.17Z"/><path class="cls-2" d="M48.76,47.65a1.11,1.11,0,0,1-.37-.79c0-.48,0-1,0-1.42,0,0,0-.13.08-.11a.54.54,0,0,1,.12.33v.16l0,.71a1.31,1.31,0,0,0,.05.48.28.28,0,0,0,.1.14.15.15,0,0,0,.17,0,.26.26,0,0,0,.05-.12c0-.2.06-.41.08-.61s0-.58.08-.87l0-.37a2.66,2.66,0,0,0,0-.69,6.09,6.09,0,0,0-.46-1.16l-1.39.56a.9.9,0,0,0,0,.13,1.19,1.19,0,0,1,0,.81c-.09.26-.22.5-.31.76a1.08,1.08,0,0,0,0,.81,1.3,1.3,0,0,0,.28.34c.32.33.65.65,1,1a2.27,2.27,0,0,0,.35.26c.09,0,.2.07.27,0S48.84,47.75,48.76,47.65Z"/><path class="cls-6" d="M64.86,22.7c0-.07-.77-2.29-1.17-3.37a12.44,12.44,0,0,0-2.6-3.76c-2.65-1.74-5.19-.66-6.91.63-4.93,2.3-2,6.93-2,6.93A16.33,16.33,0,0,1,52,26.69,19.42,19.42,0,0,0,51.89,29c.07,4.41-3.07,7.7.3,14.74,1.42.72,6.06,3.25,8.37,3.23,1.95,0,1.44-2.39,4-3.64,0-2.37.65-1.88-.33-7.72a18.6,18.6,0,0,1-.57-4.13c0-.14,0-.27,0-.4a6.71,6.71,0,0,1,.6-2.39C65.5,28,65.49,25.81,64.86,22.7Z"/><path class="cls-6" d="M48.63,22.48l4.6,1.17c.62-1.29,1.27-2.53,2-3.7l-2.77-2.6A17.09,17.09,0,0,0,48.63,22.48Z"/><path class="cls-2" d="M47.19,43.69c.17,1.32,1.65.91,1.52-.43a40.47,40.47,0,0,1,.19-7.55l-2.26-.18A62.53,62.53,0,0,0,47.19,43.69Z"/><path class="cls-6" d="M48.63,22.48A28.11,28.11,0,0,0,45.75,35a.53.53,0,0,0,.49.54l2.52.21a.53.53,0,0,0,.57-.48,18,18,0,0,1,1.85-7.15c.67-1.41,1.33-2.92,2-4.43Z"/><path class="cls-7" d="M62.59,7.06c0-.09,0-.18.07-.27A4.43,4.43,0,0,0,54.6,3.47,13,13,0,0,1,62.59,7.06Z"/><path class="cls-7" d="M69.58,9.71c-.42,1.36-5.89.9-12.23-1s-11.13-4.6-10.72-6,5.89-.9,12.22,1S70,8.35,69.58,9.71Z"/><polygon class="cls-8" points="74.53 11.68 71.07 18.43 77.35 18.43 80.81 11.68 74.53 11.68"/><polygon class="cls-9" points="74.71 11.97 72.39 16.5 75.22 16.5 77.4 11.97 74.71 11.97"/><polygon class="cls-9" points="77.85 11.97 75.63 16.5 76.6 16.5 78.92 11.97 77.85 11.97"/><path class="cls-7" d="M61.21,17.49c0,1.83-3,3.3-3,3.3s-3-1.47-3-3.3a3,3,0,1,1,6,0Z"/><path class="cls-8" d="M63,7.57a1.73,1.73,0,0,1-.17-.41,29.51,29.51,0,0,0-8.93-3,1.36,1.36,0,0,0-.49.58,2.42,2.42,0,0,0-.12,1.65c.59,0,1.25-.68,1.73-.5a1.45,1.45,0,0,1,.41.26A2.74,2.74,0,0,1,56.66,8c.08.72-.31,1.52.1,2.13s1.23.66,1.65,1.18.3,1.11.45,1.67a2.24,2.24,0,0,0,2.35,1.53,2,2,0,0,0,1.71-1.36,4.83,4.83,0,0,1,.83-1.38,2.17,2.17,0,0,0,.6-1,2.83,2.83,0,0,0-.54-2.41C63.56,8.08,63.24,7.87,63,7.57Z"/><path class="cls-4" d="M56.15,4.38h-.86a1.45,1.45,0,0,0,0,2.89H59a.31.31,0,0,0,.31-.3V5.68Z"/><path class="cls-4" d="M54.44,4.62a3.35,3.35,0,0,0-1.29,2.65V10A3.4,3.4,0,0,0,60,10V7.33Z"/><path class="cls-4" d="M59.38,16.41H57.29a.53.53,0,0,1-.52-.54l0-5.63a.54.54,0,0,1,.52-.54H59.4a.54.54,0,0,1,.52.55l0,5.62A.53.53,0,0,1,59.38,16.41Z"/><path class="cls-9" d="M56.09,11c0,.24-.15.53-.66.61,0,0-.76.1-.69-.46Z"/><path class="cls-8" d="M56.35,7.37h.83a.22.22,0,1,1,0,.44h-.83a.22.22,0,0,1,0-.44Z"/><path class="cls-8" d="M53.33,7.37H54c.1,0,.17.1.17.22s-.07.22-.17.22h-.64a.23.23,0,0,1,0-.44Z"/><path class="cls-10" d="M54,6.45h2.45a.12.12,0,0,0,.12-.12.13.13,0,0,0-.12-.12H54a.13.13,0,0,0-.12.12A.12.12,0,0,0,54,6.45Z"/><path class="cls-11" d="M56.47,8.38c0,.21.11.38.25.38s.25-.17.25-.38S56.86,8,56.72,8,56.47,8.17,56.47,8.38Z"/><polygon class="cls-11" points="56.72 8 56.3 8 56.56 8.26 56.72 8"/><path class="cls-11" d="M53.51,8.38c0,.21.11.38.24.38s.25-.17.25-.38S53.89,8,53.75,8,53.51,8.17,53.51,8.38Z"/><polygon class="cls-11" points="53.76 8 53.34 8 53.59 8.26 53.76 8"/><path class="cls-4" d="M59.88,8.54a1.08,1.08,0,0,1,1,1.16,1,1,0,1,1-1.92,0A1.08,1.08,0,0,1,59.88,8.54Z"/><path class="cls-8" d="M60.76,6.16a29.13,29.13,0,0,0-6.33-1.95c-.1.26-.42.79-.36,1s.4.27.61.28a5.18,5.18,0,0,1,4,2.18c.4.61.62,1.33,1,1.93a3.49,3.49,0,0,0,1,1,1.54,1.54,0,0,0,1.76.05A1.48,1.48,0,0,0,62.73,9C62.32,7.93,61.3,7.19,60.76,6.16Z"/><path class="cls-10" d="M54.52,9.74l.55-1.28L55.39,10a.26.26,0,0,1-.32.31l-.33-.1A.34.34,0,0,1,54.52,9.74Z"/><path class="cls-8" d="M53.91,4.12s3.91-.63,8.93,3Z"/><path class="cls-2" d="M73.64,18.44a.61.61,0,0,1,.08-.35l.09-.13.4-.58a1.35,1.35,0,0,0,.22-.43.32.32,0,0,0,0-.17.15.15,0,0,0-.14-.1.26.26,0,0,0-.11.07c-.14.15-.26.31-.39.48l-.54.68L73,18.2a2.76,2.76,0,0,0-.38.58s0,.08,0,.12l1-.46Z"/><path class="cls-12" d="M28.21,4a4.4,4.4,0,0,1-4.27,4.52c-2.35,0-4.22-1-4.22-3.49A4.7,4.7,0,0,1,23.45.11,4,4,0,0,1,28.21,4Z"/><path class="cls-12" d="M31.29,2.58c.24,1-1.47,2.31-3.83,2.83s-4.45.1-4.68-.94,1.47-2.31,3.82-2.83S31.06,1.54,31.29,2.58Z"/><path class="cls-4" d="M34.23,44.2a.52.52,0,0,1-.32-.53,3,3,0,0,0,0-.86,2.65,2.65,0,0,1-.33-1.44,1.21,1.21,0,0,1,.27-.61,5.21,5.21,0,0,1,.7-.38,5,5,0,0,1,.5-.43c.2-.11.51-.05.54.17l.51.72A2.21,2.21,0,0,0,36.46,42a3.08,3.08,0,0,1,.28.54.6.6,0,0,1-.06.58,9.74,9.74,0,0,1-1.82.95A1.82,1.82,0,0,1,34.23,44.2Z"/><path class="cls-4" d="M10.48,44.79a.51.51,0,0,0,.21-.57,2.92,2.92,0,0,1-.17-.84,2.64,2.64,0,0,0,.05-1.47,1.2,1.2,0,0,0-.39-.54,4.53,4.53,0,0,0-.76-.26,4.13,4.13,0,0,0-.58-.33c-.21-.07-.51,0-.5.26L8,41.71a2.61,2.61,0,0,1-.1,1.3,3.89,3.89,0,0,0-.18.58.64.64,0,0,0,.17.55,11.2,11.2,0,0,0,2,.62A2,2,0,0,0,10.48,44.79Z"/><polygon class="cls-4" points="32.5 76.61 32.93 79.56 34.73 80.19 36.32 79.38 36.09 78.67 35.62 75.81 32.5 76.61"/><path class="cls-13" d="M38.68,79.3l-2.63-.89a2.27,2.27,0,0,1-.76.78,1.6,1.6,0,0,1-2.46-.44l-.53,1.74c0,.16.14.31.4.31l5.34.08C39.44,80.9,39.92,79.73,38.68,79.3Z"/><polygon class="cls-4" points="4.01 67.99 1.3 69.31 1.25 71.19 2.52 72.43 3.14 71.99 5.75 70.67 4.01 67.99"/><path class="cls-13" d="M3.32,74.61l.05-2.74a2.09,2.09,0,0,1-1-.47A1.54,1.54,0,0,1,2.05,69L.2,69C0,69,0,69.23,0,69.48l1.58,5C2,75.82,3.3,75.91,3.32,74.61Z"/><path class="cls-4" d="M31.36,31l-2.12,2.92c.41.9,4.57,7.6,5.53,7.88s1.71-.49,1.2-1.28A54.43,54.43,0,0,1,31.36,31Z"/><path class="cls-14" d="M28.69,38.44c-1.86-.49-4.09.15-4.61,2.07-.61,2.22-1.11,4.13-1.54,5.78-2.62,10-2.72,10.38-9.37,14.38L10.91,62c-2.56,1.51-5.18,3.08-7.67,4.86a.85.85,0,0,0-.17,1.22l2,2.52a1.26,1.26,0,0,0,1.6.3c3.26-1.84,5.92-3.19,8.14-4.31,4.2-2.12,6.73-3.4,8.68-5.66,3.42-4,6.08-11.44,8.19-19.15C32.5,38.84,30.72,39,28.69,38.44Z"/><path class="cls-5" d="M36,63.79c-.1-4.78-.17-7.67-1.4-10.49-2.15-4.95-6-9.84-12.19-15.38-2.3-2.07-4.73-1.48-6.12,0s-1.78,3.77-.21,5.18c1.77,1.6,3.31,2.95,4.64,4.12C28.55,54.19,29,54.6,29.78,62.5c.09.89.17,1.78.24,2.66A86.57,86.57,0,0,0,31.5,76.32a1,1,0,0,0,1.2.79l2.94-.49a1,1,0,0,0,.85-1.07C36.36,73.66,36.07,69,36,63.79Z"/><path class="cls-15" d="M31.86,34.17a40.8,40.8,0,0,1-.09-6.54c.7-8.76-1.12-11.73-5.28-12.91a11.91,11.91,0,0,0-6.9-.05c-2.67.68-4.88,1.55-5.24,2.16-.93,1.54-1.36,2.31-.82,4.12,2.35,7.9,1.35,14.92.83,20.89a1.84,1.84,0,0,0,1.53,2,18.21,18.21,0,0,0,4.18.13c3,0,6.58-1.86,9.54-1.88l1.53,0a.93.93,0,0,0,.89-1C31.92,38.21,31.84,35.06,31.86,34.17Z"/><path class="cls-16" d="M27.45,40.59h0Z"/><path class="cls-4" d="M7.66,33.09a53.5,53.5,0,0,0,.52,9c0,.18.44.3,1,.22.71-.12,1.25-.55,1.22-.83a39.27,39.27,0,0,1,0-7.75Z"/><path class="cls-15" d="M15.43,16.06c-1.16.51-3.29,2.3-5.14,5.42A25.4,25.4,0,0,0,7,32.42a.85.85,0,0,0,.69.9l3.17.63A17.83,17.83,0,0,1,16.5,23.23a4.68,4.68,0,0,1,.88-.73C20.09,20.75,18.25,14.81,15.43,16.06Z"/><path class="cls-17" d="M18.13,21.45a2.52,2.52,0,0,1-.85.92,4.92,4.92,0,0,0-.9.76,17.9,17.9,0,0,0-5.69,10.79L11,34a17.65,17.65,0,0,1,5.61-10.63,6.48,6.48,0,0,1,.85-.73,2.78,2.78,0,0,0,.95-1Z"/><path class="cls-8" d="M20.8,4a1.75,1.75,0,0,0-.5,1.38,4.43,4.43,0,0,1,.18.59,1.65,1.65,0,0,1-.34,1,1,1,0,0,0-.13,1c.17.28.56.36.75.62s.12,1.07.54,1.3c.18.1.41.07.58.19s.19.54.4.72a.54.54,0,0,0,.62,0,1.3,1.3,0,0,0,.41-.49,1.66,1.66,0,0,0,.25-1.18c-.13-.47-.55-.78-.85-1.17a1.92,1.92,0,0,1-.15-2.15c.14-.21.32-.39.47-.59a1,1,0,0,0,.22-.71,1.84,1.84,0,0,0-.32-.6.65.65,0,0,1-.1-.65c.06-.09.15-.16.2-.25.14-.26-.09-.5-.34-.54s-.37.08-.55.23A10.76,10.76,0,0,0,20.8,4Z"/><path class="cls-8" d="M28.64,5.56c.22-.32.46-.63.66-.9.82-1.09-.43-2.31-1-2.37a2.42,2.42,0,0,0-2.83,2.06A5.34,5.34,0,0,1,28.64,5.56Z"/><path class="cls-4" d="M27.35,5.33H23.66a.29.29,0,0,1-.29-.3V3.11A.58.58,0,0,1,24,2.53h3.4a1.4,1.4,0,0,1,0,2.8Z"/><path class="cls-8" d="M21.44,9.16a3.86,3.86,0,0,0,.74,1.3,2.57,2.57,0,0,0,.76-1.83,1.31,1.31,0,0,1-.39-1c0-.61.29-1.1.65-1.1,0,0,.05,0,.08,0l-2.4-2.12A8.29,8.29,0,0,0,21.44,9.16Z"/><path class="cls-4" d="M22.27,6.56a1,1,0,0,0-.95,1.12,1,1,0,1,0,1.89,0A1.05,1.05,0,0,0,22.27,6.56Z"/><path class="cls-4" d="M28.07,2.76a3.68,3.68,0,0,1,1.37,2.85l0,2.93a3.58,3.58,0,1,1-7.16,0V5.67Z"/><path class="cls-4" d="M22.09,16.06l2.72.28a.69.69,0,0,0,.76-.62l.74-7.13a.69.69,0,0,0-.61-.76L23,7.55a.69.69,0,0,0-.75.62l-.74,7.13A.69.69,0,0,0,22.09,16.06Z"/><path class="cls-8" d="M22.2,5.86l-.1,2.77a3.52,3.52,0,0,0,.83,2.58,9.08,9.08,0,0,0,1.46,1.14c.75.43,2.58.24,3.36.19A1.93,1.93,0,0,0,29.32,11l.09-2.41a14.82,14.82,0,0,1-4,0C24.12,8.3,24,8.05,23.61,6.82L22.84,4.4Z"/><path class="cls-9" d="M26.19,9.39c0,.23.17.51.73.59,0,0,.83.09.76-.45Z"/><path class="cls-8" d="M26.29,5.42h-.82a.22.22,0,0,0,0,.43h.82a.21.21,0,0,0,.21-.22A.21.21,0,0,0,26.29,5.42Z"/><path class="cls-8" d="M29.49,5.42h-.82a.22.22,0,0,0,0,.43h.82a.22.22,0,0,0,0-.43Z"/><path class="cls-11" d="M28.93,6.4c0,.21-.11.38-.25.38s-.24-.17-.24-.38.11-.37.24-.37S28.93,6.2,28.93,6.4Z"/><path class="cls-11" d="M25.89,6.46c0,.21-.11.38-.25.38s-.25-.17-.25-.38.11-.38.25-.38S25.89,6.25,25.89,6.46Z"/><path class="cls-4" d="M28,2.7a5.59,5.59,0,0,0-4-.32l.9.76Z"/><path class="cls-8" d="M25.1,2.9A1.09,1.09,0,0,0,24.19,2a3,3,0,0,0-3.31,2.4l2.4,2.12,0-.62a2.38,2.38,0,0,1,1.07-1.45A1.92,1.92,0,0,0,25.1,3Z"/><path class="cls-10" d="M28.22,5.09H27A.11.11,0,0,1,26.85,5,.11.11,0,0,1,27,4.86h1.26a.12.12,0,0,1,.12.12A.12.12,0,0,1,28.22,5.09Z"/><path class="cls-10" d="M28.56,4.53H26.15A.12.12,0,0,1,26,4.42a.12.12,0,0,1,.12-.12h2.41a.11.11,0,0,1,.11.12A.11.11,0,0,1,28.56,4.53Z"/><path class="cls-10" d="M28,7.74l-.71-1.62-.42,1.93a.34.34,0,0,0,.42.39l.43-.12A.43.43,0,0,0,28,7.74Z"/><path class="cls-12" d="M20.34,6.5a16.29,16.29,0,0,1,4.6-4.32L24,1.57l-2.67.59-1.3,2.28Z"/><path class="cls-1" d="M51.4,29.45l-.49-.3c3-5,1-12.91,1-13l.56-.14C52.54,16.36,54.47,24.24,51.4,29.45Z"/></g></g></svg>