<svg xmlns="http://www.w3.org/2000/svg" viewBox="0 0 95.05 78.29"><defs><style>.cls-1,.cls-7{fill:#c8c1e5;}.cls-1{opacity:0.42;}.cls-2{fill:#ede5da;}.cls-3{fill:#ffb288;}.cls-4{fill:#161616;}.cls-5{fill:#936052;}.cls-6{fill:#a49ec6;}.cls-8{fill:#ff5941;}.cls-9{fill:#273854;}.cls-10{fill:#374d78;}.cls-11{fill:#ffc973;}.cls-12{fill:#fff;}.cls-13{fill:#693523;}.cls-14{fill:#f78c57;}.cls-15{fill:#fca556;}.cls-16{fill:#fda383;}.cls-17{fill:#f59a7a;}.cls-18{fill:#c15f44;}</style></defs><g id="Layer_2" data-name="Layer 2"><g id="Ñëîé_1" data-name="Ñëîé 1"><path class="cls-1" d="M60.06,68.06h-3.8V24.76H52.6V27.7H48.89V24.76H45.23V27.7H17.66a.5.5,0,0,0-.13,0V25.37H13.87v4.25h-3V25.37H7.22v42.7H3.45a.94.94,0,1,0,0,1.87H21.33a.94.94,0,0,0,0-1.87h-3.8V30.62h27.7V68.07H41.46a.94.94,0,0,0,0,1.87h18.6a.94.94,0,0,0,0-1.88ZM52.6,28.7V68.06H48.89V28.7ZM13.87,30.62V68.07h-3V30.62Zm3.66-1v-.95a.5.5,0,0,0,.13,0H45.23v.92Z"/><ellipse class="cls-2" cx="42.88" cy="72.29" rx="42.88" ry="6"/><polygon class="cls-3" points="72.74 69.24 72.45 71.52 74.22 71.66 74.83 70.81 74.71 70.64 74.77 69.19 72.74 69.24"/><path class="cls-3" d="M44.27,53.52l2.48-.82L47,54.85l-2.43.79A1.18,1.18,0,0,1,44.27,53.52Z"/><path class="cls-4" d="M76.56,71.24l-1.85-.6a1.15,1.15,0,0,1-2.14-.06l-.45,1.58c0,.12.11.22.29.22l3.72,0C77.11,72.36,77.43,71.53,76.56,71.24Z"/><path class="cls-4" d="M45,57.4l.17-1.93a1.16,1.16,0,0,1-.42-2.11l-1.64-.07c-.12,0-.19.15-.15.32l.85,3.63C44,58.19,44.88,58.31,45,57.4Z"/><path class="cls-5" d="M78.47,39.26c0-.32-.08-1.41-.4-1.57,0-.84,0-1.63,0-2.34,0-.06,0-.12,0-.17l-6.08.1a1,1,0,0,0,0,.17c.12.71.22,1.48.33,2.28-.33,0-.66,0-1,0a15.2,15.2,0,0,0-.5,3.44c.11,1.17.42,2.33.42,3.5a69.18,69.18,0,0,0,.55,7.61c.1,1,.28,1.92.43,2.87.33,2.07.53,4.16.67,6.25A29.78,29.78,0,0,1,72.59,66a11.11,11.11,0,0,0-.06,3c.41,2,1.76,1.52,2.51.36a1.69,1.69,0,0,0,.21-.73c.47-3.07,1-6.25,1.4-9.32.15-.76.3-1.57.43-2.49.43-3,.46-6.15.86-9.2.2-1.58.54-3.14.65-4.73A17.43,17.43,0,0,0,78.47,39.26Z"/><path class="cls-5" d="M72.18,38c.31-.61.6-1.22.89-1.82,1.78-3.84-3.46-5.66-4.59-3.24-.22.47-.42.92-.63,1.36a7.59,7.59,0,0,0-2.19,3.08c-.61,1.44-1,3-1.73,4.39a12.24,12.24,0,0,1-4,4.35c-.48.33-1,.62-1.47.9l-1.48.6A82.35,82.35,0,0,0,46.71,52c-2.08,1.15-1.67,3.9,1.45,2.7.81-.31,1.57-.58,2.3-.85a52.29,52.29,0,0,0,5.3-.88c.74-.23,1.42-.64,2.15-.89,2.85-1,6,0,10.75-5.53,2.17-2.48,2-1.29,5.43-8.12C73.51,38.29,72.85,38.14,72.18,38Z"/><path class="cls-6" d="M84.48,25.46c-.09,0,2,.46.93.35-.51-.07-1.62.67-3.15-.08-.21-.14-7.05-4.42-7.27-4.54-.41-2.05.26-5.89,2.07-4A66.08,66.08,0,0,0,82.72,22l.6.42A24.2,24.2,0,0,1,84.48,25.46Z"/><path class="cls-3" d="M83.32,22.4a11.53,11.53,0,0,0,3.54.06l-2.61,2.81-1.09-.4Z"/><path class="cls-7" d="M65.29,38.62a2.68,2.68,0,0,0,.07.27H78.25a48.49,48.49,0,0,0-.46-6.44,23.92,23.92,0,0,1,1.07-9,10,10,0,0,0,.2-2.61c0-.09,0-.18,0-.28a2.88,2.88,0,0,0-.09-.4,10.58,10.58,0,0,0-1-2.14c-3-3.49-5.85-2.81-7.8-1.6-4.36.82-2.2,6.46-2.2,6.46a13.07,13.07,0,0,1-.35,7.92,51.47,51.47,0,0,0-2,5.66,6.65,6.65,0,0,0-.24,2.13Z"/><path class="cls-3" d="M72.61,17.25a3,3,0,0,0,1.07,1.2,4.12,4.12,0,0,0,1.5.77,1.77,1.77,0,0,0,1,0,1.07,1.07,0,0,0,.69-.73,1.22,1.22,0,0,0,0-.6,2.48,2.48,0,0,0-.9-1.31,4.26,4.26,0,0,0-1.44-.69c-.44-.12-1.27-.36-1.67-.07A1.29,1.29,0,0,0,72.61,17.25Z"/><path class="cls-8" d="M81.89,21.43a6.52,6.52,0,1,0,6.51-6.51A6.52,6.52,0,0,0,81.89,21.43Z"/><path class="cls-6" d="M37.64,33h-1.1l-.15,0a.85.85,0,0,1,.7.84v2a.85.85,0,0,1-.7.84l.15,0h1.1a.86.86,0,0,0,.85-.86v-2A.85.85,0,0,0,37.64,33Z"/><path class="cls-7" d="M37.09,35.89v-2a.85.85,0,0,0-.7-.84l-.16,0H35.14a.85.85,0,0,0-.86.86v.45h1.06a.45.45,0,0,1,.44.45.44.44,0,0,1-.44.44H34.28v.65a.86.86,0,0,0,.86.86h1.09l.16,0A.85.85,0,0,0,37.09,35.89Z"/><polygon class="cls-3" points="22.57 68.23 22.3 70.83 23.68 71.75 25.3 70.54 25.1 70.24 25.36 68.21 22.57 68.23"/><polygon class="cls-3" points="9.93 67.99 8.9 70.57 9.69 71.71 11.07 71.49 11.79 70.5 11.68 70.28 12.49 68.47 9.93 67.99"/><path class="cls-3" d="M12,14.09l-.4-.18,0-.42c.22-1.08.35-2.22.49-3.31a34.06,34.06,0,0,1,.61-3.85c.42-1.78,0-2.71-.25-2.79s-.59.26-1,1.18c-1.49,3.05-4,8.8-3.8,11,0,.39.13.54.19.59a10.59,10.59,0,0,0,3.34,1.77l1.09.48a12,12,0,0,1,1.87-3.89C13.87,14.61,12.2,14.19,12,14.09Z"/><path class="cls-3" d="M33.85,22.15s.62.18.62.18c.13,1.88-.65,11.83,0,12h.43c.16,0,.32,0,.58-1,1-3.58,2.92-11.21,2.46-13.41-.08-.39-.2-.52-.26-.56A10.86,10.86,0,0,0,34.16,18L33,17.71a12,12,0,0,1-1.36,4.1C31.89,21.88,33.6,22.08,33.85,22.15Z"/><path class="cls-9" d="M29.41,35.47c-.64-.57-1.84.09-2.2.69a2.13,2.13,0,0,0-.21.49H23.52c-.43-.35-1.47-.77-1.88-.27s.27,2,.34,2.51a52.91,52.91,0,0,1,.33,6.17c0,1.25.05,2.5.18,3.74s.31,2.18.43,3.28c.46,4.44-.44,8.92-.38,13.38,0,.16-.05.33-.09.49-.94,4.7,2.78,4.21,3.15,2.14.18-1,.36-2.07.52-3.11.3-1.86.57-3.73.82-5.57.11-.49.22-1,.35-1.46A29,29,0,0,0,28,54.78c.14-1.07.13-2.15.21-3.22.14-1.65.51-3.28.8-4.91a48,48,0,0,0,.7-8C29.72,37.88,30,36,29.41,35.47Z"/><path class="cls-8" d="M14,71.06l-2.28-.78A1.88,1.88,0,0,1,11,71a1.35,1.35,0,0,1-2.12-.39l-.46,1.54c0,.13.12.26.34.27l4.63.06C14.62,72.46,15,71.43,14,71.06Z"/><path class="cls-8" d="M27.38,71l-2.28-.78a2,2,0,0,1-.66.68,1.37,1.37,0,0,1-2.13-.39l-.46,1.53c0,.14.13.27.35.27l4.63.07C28,72.42,28.45,71.39,27.38,71Z"/><path class="cls-7" d="M31.52,35.89v-2a.86.86,0,0,0-.75-.85H29.36a.86.86,0,0,0-.85.86v2a.86.86,0,0,0,.85.86h1.41A.85.85,0,0,0,31.52,35.89Z"/><path class="cls-6" d="M35.78,34.8a.45.45,0,0,0-.44-.45H33V33.9a.86.86,0,0,0-.86-.86h-1.4a.85.85,0,0,1,.75.85v2a.86.86,0,0,1-.75.85h1.4a.87.87,0,0,0,.86-.86v-.65h2.33A.44.44,0,0,0,35.78,34.8Z"/><path class="cls-10" d="M23.53,38.1l-.22.15c0-.1-.14-.13-.23-.15a3.53,3.53,0,0,0-.92-.05c-.13-.67-.26-1.35-.41-2a2.92,2.92,0,0,0-2.69-2.6,25.5,25.5,0,0,0-1.21,3,2.44,2.44,0,0,1-.19.84,2.62,2.62,0,0,0-.89-.49c-.77-.22-1.43-.62-1.59.11-.31,1.37.32,3.7.48,5.09.35,3,1.76,5.79,1.56,8.77a15.34,15.34,0,0,1-1.94,5.73c-1.84,3.66-4.4,7-5.27,11l0,.06c-.52,2.16,1.4,3.71,3.08.83L14,66.8c1.35-1.7,2.89-3.56,3.74-4.61a22.74,22.74,0,0,0,1.69-2.64c.53-.85,1.11-1.66,1.61-2.53a21.73,21.73,0,0,0,2.65-9.24A65.19,65.19,0,0,0,23.53,38.1Z"/><path class="cls-3" d="M23,19.47c-.47-.59-.95-1.16-1.44-1.73a.84.84,0,0,1,.13-1.21A2.57,2.57,0,0,1,23.51,16c.73.09,1.94.66,1.56,1.44a17.75,17.75,0,0,1-1.06,2A.61.61,0,0,1,23,19.47Z"/><path class="cls-11" d="M30,25.3l-.47-9.19c-6.36-2.27-10.78-.92-12.1-.4L15.85,37.19l.17.7a2.17,2.17,0,0,0,1.61.68,53.65,53.65,0,0,0,6.19.43c1.68,0,3.35-.19,5-.37a1.45,1.45,0,0,0,.84-.27c.51-.44.45-1.87.46-2.57,0-.11-.21-6.5-.15-8.65C30,26.53,30,25.91,30,25.3Z"/><path class="cls-11" d="M11.36,20.58a2.13,2.13,0,0,0,1.7.79A6.1,6.1,0,0,1,15,21.6,3,3,0,0,1,16.6,24a8.94,8.94,0,0,1-.23,3l-1.8,9.3a2.81,2.81,0,0,0,0,1.65,2.58,2.58,0,0,0,.84.9,5.61,5.61,0,0,0,3.13,1.53,5.55,5.55,0,0,0,2-.46l5.42-2a28.19,28.19,0,0,1-4.14-8.8,49.27,49.27,0,0,1-1.19-6.37c-.17-1.33-.42-2.82-1.51-3.56a4.46,4.46,0,0,0-1.59-.57c-1.75-.39-3.56-1-5.34-1.18-.92-.12-.83,0-1,.95A3.08,3.08,0,0,0,11.36,20.58Z"/><polygon class="cls-11" points="12.89 14.36 23.2 15.68 18.39 17.83 12.89 14.36"/><path class="cls-11" d="M12.89,14.36s-1.43.93-1.61,4.32l7.44,1.11.92-2.87Z"/><path class="cls-2" d="M20.65,5.55a1.58,1.58,0,0,0-.44,1.21,5.16,5.16,0,0,1,.16.52,1.45,1.45,0,0,1-.3.83A.88.88,0,0,0,20,9c.15.25.48.32.65.55s.1.93.47,1.14c.16.08.36.06.5.16s.17.48.35.64a.45.45,0,0,0,.53,0,1.08,1.08,0,0,0,.36-.43A1.44,1.44,0,0,0,23,10c-.1-.41-.47-.68-.73-1a1.72,1.72,0,0,1-.13-1.89c.12-.19.28-.35.41-.53a.84.84,0,0,0,.19-.62,1.88,1.88,0,0,0-.28-.52.57.57,0,0,1-.08-.57c0-.08.12-.14.17-.23s-.08-.43-.3-.47a.54.54,0,0,0-.47.2A8.23,8.23,0,0,0,20.65,5.55Z"/><path class="cls-2" d="M27.14,4.07c-1.41-.15-3.74.64-1.77,6.26A3.35,3.35,0,0,0,26,11.47a2.31,2.31,0,0,0,.67-1.61,1.09,1.09,0,0,1-.34-.9c0-.54.25-1,.56-1L27,8A4.84,4.84,0,0,1,28,6.14C28.72,5.18,27.63,4.11,27.14,4.07Z"/><path class="cls-3" d="M26.3,6.73H23.13a.26.26,0,0,1-.26-.26V4.78a.51.51,0,0,1,.51-.51H26.3a1.23,1.23,0,0,1,0,2.46Z"/><path class="cls-2" d="M21.2,10.1a3.44,3.44,0,0,0,.64,1.14,2.27,2.27,0,0,0,.66-1.61,1.14,1.14,0,0,1-.34-.9c0-.53.26-1,.56-1a.15.15,0,0,1,.07,0L20.72,5.93A7.37,7.37,0,0,0,21.2,10.1Z"/><path class="cls-3" d="M21.92,7.82a.9.9,0,0,0-.82,1,.83.83,0,1,0,1.63,0A.91.91,0,0,0,21.92,7.82Z"/><path class="cls-3" d="M26.94,4.48A3.23,3.23,0,0,1,28.13,7l0,2.57a3.1,3.1,0,1,1-6.2,0V7Z"/><path class="cls-3" d="M21.76,16.17l2.36.24a.59.59,0,0,0,.65-.54l.65-6.27a.6.6,0,0,0-.53-.67l-2.36-.24a.59.59,0,0,0-.65.54l-.65,6.27A.61.61,0,0,0,21.76,16.17Z"/><path class="cls-2" d="M21.86,7.2l-.09,2.43a3.19,3.19,0,0,0,.72,2.28,7.53,7.53,0,0,0,1.26,1c.65.39,2.24.21,2.91.18A1.68,1.68,0,0,0,28,11.75l.08-2.12a12.62,12.62,0,0,1-3.48,0c-1.1-.24-1.2-.47-1.54-1.54l-.67-2.14Z"/><path class="cls-12" d="M25.32,10.3c0,.2.14.45.63.52,0,0,.72.08.65-.39Z"/><path class="cls-2" d="M25.4,6.82h-.71a.18.18,0,0,0-.18.18.19.19,0,0,0,.18.19h.71A.19.19,0,0,0,25.58,7,.18.18,0,0,0,25.4,6.82Z"/><path class="cls-2" d="M28.17,6.82h-.7a.18.18,0,0,0-.19.18.19.19,0,0,0,.19.19h.7A.2.2,0,0,0,28.36,7,.19.19,0,0,0,28.17,6.82Z"/><path class="cls-13" d="M27.69,7.68c0,.18-.1.33-.21.33s-.22-.15-.22-.33.1-.33.22-.33S27.69,7.5,27.69,7.68Z"/><path class="cls-13" d="M25.05,7.73c0,.18-.09.33-.21.33s-.22-.15-.22-.33.1-.33.22-.33S25.05,7.55,25.05,7.73Z"/><path class="cls-3" d="M26.84,4.42a4.76,4.76,0,0,0-3.46-.28l.78.67Z"/><path class="cls-2" d="M24.37,4.59c0-.41-.5-.75-.79-.78a2.6,2.6,0,0,0-2.86,2.12l2.07,1.86s0-.55,0-.55A2.18,2.18,0,0,1,23.69,6a1.7,1.7,0,0,0,.68-1.32Z"/><path class="cls-14" d="M27.07,6.52H26a.09.09,0,0,1-.1-.1.1.1,0,0,1,.1-.1h1.08a.1.1,0,0,1,.1.1A.09.09,0,0,1,27.07,6.52Z"/><path class="cls-14" d="M27.36,6H25.28a.1.1,0,0,1-.1-.1.11.11,0,0,1,.1-.1h2.08a.11.11,0,0,1,.11.1A.1.1,0,0,1,27.36,6Z"/><path class="cls-14" d="M26.9,8.85l-.61-1.42-.37,1.69a.3.3,0,0,0,.37.35l.36-.11A.38.38,0,0,0,26.9,8.85Z"/><path class="cls-11" d="M29.47,16.1l5.37,2.1A23.4,23.4,0,0,1,32.77,22a1.18,1.18,0,0,1-1.54.34,3.2,3.2,0,0,0-2.42-.39Z"/><path class="cls-3" d="M25.72,16.43c0,.74-1.23,1.34-2.75,1.34s-2.75-.6-2.75-1.34S21.45,15.1,23,15.1,25.72,15.7,25.72,16.43Z"/><path class="cls-3" d="M33.54,36a.46.46,0,0,1-.24-.51,2.93,2.93,0,0,0,.09-.79,2.46,2.46,0,0,1-.15-1.36,1.18,1.18,0,0,1,.31-.53,5,5,0,0,1,.67-.29,4.3,4.3,0,0,1,.51-.36c.19-.08.47,0,.48.21l.4.59a2.57,2.57,0,0,0,.19,1.2,2.83,2.83,0,0,1,.21.52.56.56,0,0,1-.12.53,9.77,9.77,0,0,1-1.76.72A1.77,1.77,0,0,1,33.54,36Z"/><path class="cls-6" d="M9,3.71h1.09l.16,0a.85.85,0,0,1-.7-.84v-2a.85.85,0,0,1,.7-.84l-.16,0H9a.87.87,0,0,0-.86.86v2A.87.87,0,0,0,9,3.71Z"/><path class="cls-7" d="M9.58.86v2a.85.85,0,0,0,.7.84l.15,0h1.1a.87.87,0,0,0,.86-.86V2.39H11.33a.45.45,0,1,1,0-.89h1.06V.86A.87.87,0,0,0,11.53,0h-1.1l-.15,0A.85.85,0,0,0,9.58.86Z"/><path class="cls-7" d="M15.15.86v2a.85.85,0,0,0,.75.84l.1,0h1.3a.86.86,0,0,0,.86-.86v-2A.85.85,0,0,0,17.3,0H15.9A.85.85,0,0,0,15.15.86Z"/><path class="cls-6" d="M10.88,2a.45.45,0,0,0,.45.44h2.33v.46a.86.86,0,0,0,.85.86h1.41a.86.86,0,0,1-.76-.85v-2A.86.86,0,0,1,15.92,0H14.51a.86.86,0,0,0-.85.86V1.5H11.33A.45.45,0,0,0,10.88,2Z"/><path class="cls-3" d="M13.13.74a.5.5,0,0,1,.24.52,2.66,2.66,0,0,0-.1.79,2.47,2.47,0,0,1,.16,1.36,1.18,1.18,0,0,1-.31.53,4.63,4.63,0,0,1-.68.29,5.62,5.62,0,0,1-.5.35c-.19.08-.48,0-.48-.21l-.41-.58a2.51,2.51,0,0,0-.19-1.21,3,3,0,0,1-.2-.52.57.57,0,0,1,.11-.52A10.08,10.08,0,0,1,12.53.82,1.82,1.82,0,0,1,13.13.74Z"/><path class="cls-15" d="M20.22,38.81a4.35,4.35,0,0,1-.68-.05l-.68,0c-1.39-.09-2.68-.21-3.07-.63s-.06-1.33.38-2.08a3.57,3.57,0,0,0,.6-1.43c.21-4.31.43-8.62.66-12.83a.12.12,0,0,1,.12-.11.13.13,0,0,1,.13.13c-.23,4.2-.45,8.51-.66,12.82a3.69,3.69,0,0,1-.64,1.55c-.41.7-.79,1.37-.4,1.78s1.94.49,2.9.55l.69.06a5.16,5.16,0,0,0,1.84-.11l.71-.12c.95-.14,2.07-.28,3.17-.42s2.2-.28,3.15-.42a.13.13,0,1,1,0,.25c-.94.14-2.07.28-3.15.42s-2.22.27-3.17.42l-.69.12A6.47,6.47,0,0,1,20.22,38.81Z"/><path class="cls-15" d="M30.22,35.79a.12.12,0,0,1-.13-.12c0-3.12-.73-17-.74-17.11a.13.13,0,0,1,.25,0c0,.14.71,14,.74,17.12a.12.12,0,0,1-.12.13Z"/><path class="cls-16" d="M91.56,27a1.32,1.32,0,0,1-.52.25h-.19l-1.23-.06c-.05,0-.11,0-.09-.07a.41.41,0,0,1,.3-.08H90l.61.07a1,1,0,0,0,.41,0,.21.21,0,0,0,.13-.07.12.12,0,0,0,0-.15.16.16,0,0,0-.1-.05,4.82,4.82,0,0,0-.52-.11l-.75-.13-.31-.06a2.39,2.39,0,0,0-.6-.05,2.2,2.2,0,0,0-.65.19V28h.12a1,1,0,0,1,.69.1c.22.1.42.23.64.32a.9.9,0,0,0,.7,0,1.21,1.21,0,0,0,.31-.21c.31-.25.61-.52.9-.79a1.74,1.74,0,0,0,.25-.29c0-.07.07-.17,0-.23S91.65,26.9,91.56,27Z"/><path class="cls-7" d="M85.33,26.24l-2.47,0c-.74,0-1.48-.09-2.2-.16-2.19-.23-4.55-1-5.68-2.84a20.76,20.76,0,0,1-.86-1.92,7.64,7.64,0,0,0-2.37-2.89,1.91,1.91,0,0,0-.93-.61,1.62,1.62,0,0,0-.78-.05,2,2,0,0,0-1.6,2.05,6.26,6.26,0,0,0,.36,2.74,10.82,10.82,0,0,0,2.31,2.72l3,2.89a5.93,5.93,0,0,0,1,.87,6.11,6.11,0,0,0,3.55.67,27.08,27.08,0,0,0,3.92-.6,28,28,0,0,0,5.15-.89,1.22,1.22,0,0,0,.48-.15C88.65,27.85,90.3,26,85.33,26.24Z"/><path class="cls-6" d="M78,29.83a5.52,5.52,0,0,1-3-.7A6.2,6.2,0,0,1,74,28.25l-3-2.9A11.14,11.14,0,0,1,68.6,22.6a.13.13,0,0,1,.23-.12,10.77,10.77,0,0,0,2.28,2.69l3,2.89a6.53,6.53,0,0,0,1,.86,5.85,5.85,0,0,0,3.48.64,25.35,25.35,0,0,0,3.91-.6,27,27,0,0,0,5.13-.88,1.26,1.26,0,0,0,.45-.14c.14-.08.57-.53.46-.9s-.66-.82-3.36-.67l-2,0h-.46l-.52,0c-.56,0-1.14-.08-1.7-.14-2-.2-4.55-.87-5.77-2.89A8.81,8.81,0,0,1,74.21,22c-.09-.23-.18-.46-.28-.68a7.44,7.44,0,0,0-2.34-2.85,1.91,1.91,0,0,0-.75-.55.13.13,0,0,1-.07-.16.14.14,0,0,1,.16-.07,2.15,2.15,0,0,1,.83.59,7.66,7.66,0,0,1,2.39,2.93c.11.23.2.46.29.7A8.9,8.9,0,0,0,75,23.16c1.16,1.93,3.67,2.58,5.58,2.77.56.06,1.13.1,1.69.14l.5,0h.46l2,0c2.19-.12,3.4.17,3.61.84a1.27,1.27,0,0,1-.57,1.2,1.31,1.31,0,0,1-.53.16,26.79,26.79,0,0,1-5.15.89,26.09,26.09,0,0,1-3.93.6C78.46,29.83,78.25,29.83,78,29.83Z"/><path class="cls-7" d="M64.93,37.69a2.26,2.26,0,0,0-.23,1.76,1.34,1.34,0,0,0,1.11.73A3.67,3.67,0,0,0,67.15,40a14.37,14.37,0,0,1,3.15-.78c1.85-.16,3.7.47,5.56.45a2.45,2.45,0,0,0,2.46-1.34,3.25,3.25,0,0,0-.45-2.35L77,34.14a3.45,3.45,0,0,0-1.11-1.54,2.81,2.81,0,0,0-2.17-.1,32.47,32.47,0,0,0-3.48,1.2L67,35C65.74,35.46,65.45,36.47,64.93,37.69Z"/><path class="cls-2" d="M80.18,5.57c-.17-.51-1-.85-1.15-.93s-.28-.33-.43-.48a5.1,5.1,0,0,0-.53-.4,2.8,2.8,0,0,0-2.24-.27c-.85.27-.58.56-1.21.93s-1.5,0-2.37,1.28a2.93,2.93,0,0,0-.53,1.72,4.58,4.58,0,0,1-.28.77c-.21.27-.5.46-.73.71a2.6,2.6,0,0,0-.49,2.2,2,2,0,0,0,.54.9,4,4,0,0,1,.76,1.26,1.82,1.82,0,0,0,1.56,1.24,2,2,0,0,0,2.15-1.4c.14-.51.06-1.1.4-1.52s1.17-.57,1.51-1.07,0-1.3.09-1.95a2.53,2.53,0,0,1,1.11-1.71,1.57,1.57,0,0,1,.38-.23c.44-.17,1,.45,1.57.45A2.1,2.1,0,0,0,80.18,5.57Z"/><path class="cls-3" d="M78.48,7.91H75.09a.27.27,0,0,1-.28-.27V5.83a.55.55,0,0,1,.55-.55h3.12a1.32,1.32,0,1,1,0,2.63Z"/><path class="cls-3" d="M79.26,5.5a3.11,3.11,0,0,1,1.18,2.42V10.4a3.1,3.1,0,0,1-6.2,0V8Z"/><path class="cls-3" d="M73.46,16.76l1.85.45a.51.51,0,0,0,.59-.43l1.4-5.66a.54.54,0,0,0-.33-.67L75.13,10a.53.53,0,0,0-.6.43L73.14,16.1A.52.52,0,0,0,73.46,16.76Z"/><path class="cls-12" d="M77.75,11.34c0,.22.14.48.61.56,0,0,.69.09.63-.42Z"/><path class="cls-2" d="M77.51,8h-.75a.2.2,0,1,0,0,.4h.75a.2.2,0,0,0,0-.4Z"/><path class="cls-2" d="M80.27,8h-.58a.2.2,0,0,0,0,.4h.58a.2.2,0,0,0,0-.4Z"/><path class="cls-14" d="M79.62,7.16H77.39a.1.1,0,0,1-.11-.1A.11.11,0,0,1,77.39,7h2.23a.11.11,0,0,1,.11.11A.1.1,0,0,1,79.62,7.16Z"/><path class="cls-13" d="M77.4,8.92c0,.19-.1.35-.22.35S77,9.11,77,8.92s.1-.34.23-.34S77.4,8.73,77.4,8.92Z"/><polygon class="cls-13" points="77.18 8.57 77.56 8.57 77.33 8.81 77.18 8.57"/><path class="cls-13" d="M80.11,8.92c0,.19-.1.35-.23.35s-.22-.16-.22-.35.1-.34.22-.34S80.11,8.73,80.11,8.92Z"/><polygon class="cls-13" points="79.88 8.57 80.27 8.57 80.03 8.81 79.88 8.57"/><path class="cls-3" d="M74.29,9.07a1,1,0,0,0-.88,1.06,1,1,0,0,0,.87,1.06,1,1,0,0,0,.88-1.06A1,1,0,0,0,74.29,9.07Z"/><path class="cls-2" d="M75.38,8.29c-.37.56-.56,1.22-.95,1.77a3,3,0,0,1-.93.88,1.37,1.37,0,0,1-1.6,0,1.37,1.37,0,0,1-.21-1.47c.39-1,1.38-1.71,1.86-2.7.35-.72.45-1.62,1.1-2.09a2.14,2.14,0,0,1,1.41-.31,10.18,10.18,0,0,1,1.74.28L79.06,5a.34.34,0,0,1,.14,0,.39.39,0,0,1,.08.14c.08.21.37.69.31.9s-.36.25-.55.26A4.74,4.74,0,0,0,75.38,8.29Z"/><path class="cls-14" d="M79.19,10.17,78.69,9l-.3,1.39a.24.24,0,0,0,.3.28l.3-.08A.31.31,0,0,0,79.19,10.17Z"/><path class="cls-17" d="M93.7,19.79c0,.05,0,.08-.08.12s0,.28,0,.42a.83.83,0,0,0,.08.12.5.5,0,0,0,.45.06l.45-.08a.4.4,0,0,0,.26-.12.44.44,0,0,0,0-.15l.1-.52c.08-.45-.18-1.27-.8-1a1.69,1.69,0,0,0-.59.54.44.44,0,0,0-.13.36C93.55,19.62,93.7,19.69,93.7,19.79Z"/><path class="cls-18" d="M67.81,47.51a.18.18,0,0,1-.09,0,.15.15,0,0,1,0-.18,66.73,66.73,0,0,0,5.8-6.51.13.13,0,0,1,.17,0,.13.13,0,0,1,0,.18,67.36,67.36,0,0,1-5.83,6.55A.15.15,0,0,1,67.81,47.51Z"/></g></g></svg>