<svg xmlns="http://www.w3.org/2000/svg" viewBox="0 0 109.5 88.33"><defs><style>.cls-1{fill:#6d9c7c;}.cls-2{fill:#a8daa8;}.cls-3{fill:#547c66;}.cls-4{fill:#2c2655;}.cls-5{fill:#ffb288;}.cls-6{fill:#ff9560;}.cls-7{fill:#263954;}.cls-8{fill:#393572;}.cls-9{fill:#374d78;}.cls-10{fill:#a7a3c1;}.cls-11{fill:#c8c1e5;}.cls-12{fill:#ff5941;}.cls-13{fill:#ba8a58;}.cls-14{fill:#ede5da;}.cls-15{fill:#fff;}.cls-16{fill:#693523;}.cls-17{fill:#f78c57;}.cls-18{fill:#fda383;}.cls-19{fill:#da7451;}.cls-20{fill:#892517;}.cls-21{fill:#162027;}.cls-22{fill:#cd603f;}.cls-23{fill:#95ad7d;}.cls-24{fill:#b1d394;}.cls-25{fill:#b92127;}.cls-26{fill:#d83f4a;}.cls-27{fill:#ffc8e6;}</style></defs><g id="Layer_2" data-name="Layer 2"><g id="Ñëîé_1" data-name="Ñëîé 1"><path class="cls-1" d="M93,77.77a6.82,6.82,0,0,1-1.28,0,4.39,4.39,0,0,1-2.66-1,5.24,5.24,0,0,1-1-1.41,7,7,0,0,1-.82-3.89c.18-1.55,1-2.89,1.14-4.45.16-2.84-1.62-5.17-.14-7.94,1.33-2.49,1.68-5.07,2.25-8a7.31,7.31,0,0,1,.93-2.67,1.68,1.68,0,0,1,3.08,0A7.32,7.32,0,0,1,95.48,51c.57,2.88.91,5.46,2.24,8,1.49,2.77-.29,5.1-.13,7.94.08,1.56,1,2.9,1.13,4.45a7,7,0,0,1-.81,3.89,5.27,5.27,0,0,1-1,1.41,4.36,4.36,0,0,1-2.66,1A6.79,6.79,0,0,1,93,77.77Z"/><path class="cls-2" d="M96.38,70.94l-.18-.15L93,77.06V69.9l2.48-6-.19-.12L93,69.31s0-3.9,0-3.92l0-.06V60l1.84-3.21,0,0-.17-.16-1.7,3s0-3.42,0-3.44l0-.05V48.84h-.22v6.82L91.32,53l-.18.16,1.64,2.94v8.68L90.49,59.3l-.19.12,2.48,6v4.43s0,.08,0,.11v4l-3-5.25,0-.05-.18.15,3.16,5.61v8H93v-4.8Zm-.15,0L93,77.32Zm-3.34,6.29v0ZM95.33,64,93,69.61S95.33,64,95.33,64Zm-.61-7.23-1.72,3ZM92.89,49v0Zm-1.6,4.25,1.49,2.67Zm-.85,6.26,2.34,5.62S90.44,59.48,90.44,59.48Zm2.45,6v0Zm0,4.53v0Zm-3.12-1.2,3,5.35S89.77,68.81,89.77,68.81Zm3.12,13.43v0Z"/><path class="cls-2" d="M18.94,73.54a18.79,18.79,0,0,1-3.1-.12,10.53,10.53,0,0,1-6.42-2.53,12.43,12.43,0,0,1-2.34-3.41,17.09,17.09,0,0,1-2-9.4c.43-3.74,2.54-7,2.75-10.75.38-6.88-3.92-12.5-.34-19.2,3.23-6,4.06-12.26,5.44-19.23a17.38,17.38,0,0,1,2.26-6.44A5.26,5.26,0,0,1,18.94,0a5.24,5.24,0,0,1,3.72,2.46A17.57,17.57,0,0,1,24.93,8.9c1.37,7,2.21,13.2,5.43,19.23,3.58,6.7-.72,12.32-.34,19.2.21,3.77,2.32,7,2.75,10.75a17.09,17.09,0,0,1-2,9.4,12.62,12.62,0,0,1-2.33,3.41A10.56,10.56,0,0,1,22,73.42,18.79,18.79,0,0,1,18.94,73.54Z"/><path class="cls-1" d="M27.11,57l-.44-.35L18.94,71.82V54.49l6-14.39-.47-.3L18.94,53.07V43.64l.06,0-.06-.15V30.58l4.45-7.76.07-.13L23,22.31l-4.09,7.14V21.2l.07-.06L18.94,21V3.58h-.53v16.5l-3.54-6.36-.43.38,4,7.12v21L12.87,28.87l-.47.3,6,14.45V54.33l-.08.21.08.05v9.65L11.28,51.56l-.07-.13-.43.37,7.63,13.58V84.65h.53V73Zm-.36.1s-7.81,15.33-7.81,15.31ZM18.68,72.33s0-7,0-7S18.68,72.33,18.68,72.33Zm5.89-32.1S18.94,53.8,18.94,53.77ZM23.09,22.76S18.94,30,18.94,30,23.09,22.76,23.09,22.76ZM18.68,29.9s0-8.47,0-8.47S18.68,29.9,18.68,29.9Zm0-26s0,16.66,0,16.66S18.67,3.9,18.67,3.9ZM14.8,14.18s3.61,6.46,3.61,6.46S14.8,14.18,14.8,14.18Zm3.87,16.34s0,12.32,0,12.29Zm-5.92-1.21s5.66,13.58,5.66,13.61Zm5.92,14.51s0,9.87,0,9.89Zm0,10.94s0,10,0,10S18.67,54.76,18.67,54.76Zm-7.54-2.88S18.41,64.8,18.41,64.8,11.13,51.88,11.13,51.88Zm7.54,32.45V73s0,11.33,0,11.33Z"/><path class="cls-1" d="M106.82,83.35a62.8,62.8,0,0,0-10.66-1.64c-7-.66-14.57-1-22.16-1.12v.08H52.83V77.48c-6.35-.12-12.87-.17-19.19-.14a125.19,125.19,0,0,0-13,.56c-3.29.37-6.26,1.22-4.81,2,1.14.61,4.37.83,7.24.9a62.81,62.81,0,0,1,8.27.48c.69.12,1.3.32,1,.5A5.38,5.38,0,0,1,31,82c-8.08.71-17.59.4-25.21,1.34a10,10,0,0,0-2.47.52C2.26,84.4,4.55,85,6.73,85.3c11.08,1.7,24.77,2.21,38,2.58,18.1.51,36.83.82,54.25-.4,3.6-.26,7.38-.62,9.29-1.37C110.5,85.26,109.48,84.13,106.82,83.35Z"/><path class="cls-1" d="M98.53,84.58a.75.75,0,0,0-.33-.9C96.05,82,86.94,82.14,84.82,80.41c-.86-.7-.2-1.51-.76-2.25-1.08-1.4-6.15-2.07-10.62-2.09s-8.91.41-13.35.26a25.22,25.22,0,0,1-4.29-.45,14.53,14.53,0,0,1-3.29-1.25,30.62,30.62,0,0,0-8-2.63,31.52,31.52,0,0,0-11,0c-4,.84-4.88,2.55-7.24,3.88s-6.81,2.42-11.66,2.76c-3.75.26-8,.16-11,.91C-2.59,81,.26,83,4.46,84.58Z"/><path class="cls-3" d="M80,74.5a11.61,11.61,0,0,1-2-.07,6.66,6.66,0,0,1-4-1.6,7.87,7.87,0,0,1-1.47-2.15,10.7,10.7,0,0,1-1.25-5.93c.28-2.36,1.6-4.4,1.74-6.78.24-4.34-2.47-7.89-.22-12.11,2-3.81,2.57-7.74,3.43-12.13a11.26,11.26,0,0,1,1.43-4.07A3.35,3.35,0,0,1,80,28.11a3.33,3.33,0,0,1,2.34,1.55,10.9,10.9,0,0,1,1.43,4.07c.87,4.39,1.4,8.32,3.43,12.13,2.26,4.22-.46,7.77-.21,12.11.13,2.38,1.46,4.42,1.73,6.78a10.78,10.78,0,0,1-1.24,5.93A8.12,8.12,0,0,1,86,72.83a6.66,6.66,0,0,1-4,1.6A11.53,11.53,0,0,1,80,74.5Z"/><path class="cls-1" d="M85.17,64.08l-.28-.22L80,73.42V62.49l3.77-9.08-.29-.19L80,61.59s0-5.94,0-6l0-.09V47.4l2.8-4.89.05-.08-.27-.24L80,46.69V41.48l0,0,0-.08v-11h-.34V40.78l-2.23-4-.27.24,2.5,4.49V54.73l-3.49-8.41-.3.19,3.79,9.12v6.76l-.05.13.05,0v6.09l-4.5-8,0-.09-.27.24,4.81,8.57V81.51H80V74.19Zm-.23.06S80,73.81,80,73.81,84.94,64.14,84.94,64.14Zm-5.09,9.6v0Zm3.72-20.25L80,62.05S83.57,53.49,83.57,53.49Zm-.93-11L80,47.05ZM79.85,47v0Zm0-16.41v0ZM77.4,37.06s2.28,4.07,2.28,4.07S77.4,37.06,77.4,37.06Zm2.45,10.31v0Zm-3.74-.77s3.57,8.57,3.57,8.57S76.11,46.6,76.11,46.6Zm3.74,9.15v0Zm0,6.91v0Zm-4.76-1.82S79.68,69,79.68,69,75.09,60.84,75.09,60.84Zm4.76,20.47v0Z"/><path class="cls-4" d="M100.3,70.51A60,60,0,0,1,74.7,50.7l.21-.14a59.69,59.69,0,0,0,25.48,19.72Z"/><path class="cls-5" d="M75.77,51.63a.43.43,0,0,1-.52-.1A2.5,2.5,0,0,0,74.7,51a2.38,2.38,0,0,1-1.12-.65,1.18,1.18,0,0,1-.22-.53,5.15,5.15,0,0,1,.15-.68c0-.2,0-.4,0-.58s.27-.36.43-.25l.68,0a2.43,2.43,0,0,0,1,.53,2.27,2.27,0,0,1,.51.14.55.55,0,0,1,.33.38,9.47,9.47,0,0,1-.45,1.74S75.87,51.58,75.77,51.63Z"/><path class="cls-6" d="M47.35,52.58a1.32,1.32,0,0,1-.25-.52.61.61,0,0,1,0-.19c0-.41,0-.82,0-1.23,0,0,0-.11.08-.09a.54.54,0,0,1,.08.3.57.57,0,0,0,0,.13c0,.21,0,.41-.08.61a1.19,1.19,0,0,0,0,.42.21.21,0,0,0,.07.13.14.14,0,0,0,.15,0,.16.16,0,0,0,0-.1,4.82,4.82,0,0,0,.11-.52c0-.25.09-.5.14-.75l0-.31a1.62,1.62,0,0,0-.14-1.25H46.31a.31.31,0,0,0,0,.11,1.06,1.06,0,0,1-.1.7c-.1.21-.24.41-.33.63a1,1,0,0,0,0,.7,1.36,1.36,0,0,0,.21.32c.25.31.52.61.79.9a1.74,1.74,0,0,0,.29.25c.07,0,.17.07.23,0S47.41,52.67,47.35,52.58Z"/><ellipse class="cls-7" cx="59.07" cy="25.86" rx="5.1" ry="2.44"/><polygon class="cls-7" points="63.53 57.92 54.86 57.95 54.16 48.55 63.53 48.55 63.53 57.92"/><polygon class="cls-5" points="66.97 80.34 67.34 82.93 68.89 83.49 70.27 82.77 70.07 82.15 69.67 79.64 66.97 80.34"/><path class="cls-8" d="M72.32,82.71,70,81.93a2,2,0,0,1-.66.68,1.36,1.36,0,0,1-2.13-.39l-.46,1.54c0,.13.12.26.35.27l4.62.06C73,84.11,73.39,83.08,72.32,82.71Z"/><path class="cls-9" d="M74.28,47.5C69,42.76,66.43,36.66,67.54,31.18V31c.32-1.79-1.94-4.09-3.23-4.49-.86-.26-.6.58-1,1.56a6.55,6.55,0,0,1-.38.72,7.49,7.49,0,0,0-1.15,5.78c.92,3.86,3.51,9.63,10.53,15.23a1.15,1.15,0,0,0,.72.25,1.6,1.6,0,0,0,1.2-.62A1.36,1.36,0,0,0,74.28,47.5Z"/><path class="cls-8" d="M42.72,78.19l-2.83-3.26c-.14-.16-.39-.23-.5-.12l-1.71,1.61c-.1.09,0,.28.15.38l3.78,2.26C42.6,79.65,43.43,79,42.72,78.19Z"/><path class="cls-10" d="M63.66,46.79c-1.61-.43-3.54.13-4,1.82-.53,2-1,3.63-1.34,5.09-2.26,8.77-2.35,9.12-8.11,12.63l-2,1.18a70.61,70.61,0,0,0-8.34,5.55A2.63,2.63,0,0,0,39,76.48a1.76,1.76,0,0,0,1.5.72,4.12,4.12,0,0,0,2.08-.68c3.77-2.25,6.71-3.76,9.08-5,3.64-1.87,5.83-3,7.52-5,3-3.5,5.19-8.29,7-15.07A3.58,3.58,0,0,0,63.66,46.79Z"/><path class="cls-11" d="M70,69.07c-.1-4.2-.15-6.74-1.22-9.22-1.87-4.35-5.22-8.65-10.56-13.52a3.54,3.54,0,0,0-5.3,0c-1.16,1.26-1.54,3.31-.19,4.55,1.54,1.41,2.87,2.6,4,3.63C63.54,60.63,64,61,64.61,67.94l.21,2.34a78,78,0,0,0,1.27,9.81.92.92,0,0,0,1,.7l2.54-.43a.9.9,0,0,0,.74-1C70.31,77.75,70.06,73.67,70,69.07Z"/><path class="cls-12" d="M55.79,25.89l-1.26,5.34,1.54,19.21c2.64,0,5.93-1.19,8.57-1.16L63.23,26.1A15.89,15.89,0,0,0,55.79,25.89Z"/><path class="cls-9" d="M66.41,43a36.8,36.8,0,0,1-.08-5.75c.15-1.95.29-3.78.28-5.6-.07-.7-.09-1.32-.13-1.91a4,4,0,0,0-2.75-3.52l-.5-.16,1.66,27.36A34.28,34.28,0,0,1,67,56.57C66.8,54.69,66.37,44.92,66.41,43Z"/><path class="cls-9" d="M51.24,27.79c-.8,1.36-1.18,2-.71,3.62,3.06,10.43-.55,17.26.74,25.05a1.26,1.26,0,0,0,1,1.12c.69.09,1.47.26,2.21.39s1.56-.67,1.55-1.73c0,0,.57-15.56-.18-20.63a45.49,45.49,0,0,1-.08-9.72C53.47,26.49,51.55,27.26,51.24,27.79Z"/><path class="cls-13" d="M62.59,48.68h0Z"/><path class="cls-9" d="M52.18,27.12a12,12,0,0,0-4.45,4.76c-2.15,3.67-3.85,9.45-2.49,17.52.18,1.1,3,.54,2.87-.58-.63-5.76.56-11.28,5-15.4a5.79,5.79,0,0,1,.75-.65C56.22,31.24,54.62,26,52.18,27.12Z"/><path class="cls-7" d="M46.25,50.12c-.64,0-1.08-.26-1.16-.7l.25,0c.07.43.68.55,1.25.47s1.44-.51,1.38-1c-.72-6.52,1-11.74,5-15.5a4.64,4.64,0,0,1,.78-.66,2.16,2.16,0,0,0,.73-.82l.22.12a2.41,2.41,0,0,1-.82.91,4.72,4.72,0,0,0-.74.63c-4,3.71-5.66,8.85-5,15.29.07.69-.77,1.18-1.6,1.29Z"/><path class="cls-14" d="M61.53,16.5A1.58,1.58,0,0,1,62,17.71a5.16,5.16,0,0,0-.16.52,1.45,1.45,0,0,0,.3.83.9.9,0,0,1,.11.85c-.15.25-.48.32-.66.55s-.09.93-.46,1.14c-.16.08-.36.06-.5.17s-.17.47-.35.63a.45.45,0,0,1-.53,0,1.19,1.19,0,0,1-.37-.43,1.46,1.46,0,0,1-.2-1c.1-.41.47-.69.73-1A1.72,1.72,0,0,0,60,18c-.12-.19-.28-.35-.41-.53a.84.84,0,0,1-.19-.62,1.88,1.88,0,0,1,.28-.52.57.57,0,0,0,.08-.57c0-.08-.12-.14-.17-.23s.08-.43.3-.47a.54.54,0,0,1,.47.2A8.23,8.23,0,0,1,61.53,16.5Z"/><path class="cls-14" d="M54.82,18a4.46,4.46,0,0,1,2.63-1.34A2.09,2.09,0,0,0,55,15c-.5.05-1.58,1.12-.87,2.07C54.37,17.36,54.61,17.67,54.82,18Z"/><path class="cls-5" d="M55.88,17.68h3.17a.26.26,0,0,0,.26-.26V15.73a.51.51,0,0,0-.51-.51H55.88a1.23,1.23,0,0,0,0,2.46Z"/><path class="cls-14" d="M61,21.05a3.26,3.26,0,0,1-.63,1.14,2.31,2.31,0,0,1-.67-1.61,1.06,1.06,0,0,0,.34-.9c0-.53-.25-1-.56-1l-.06,0,2.07-1.86A7.3,7.3,0,0,1,61,21.05Z"/><path class="cls-5" d="M60.26,18.77a1,1,0,0,1,0,2,1,1,0,0,1,0-2Z"/><path class="cls-5" d="M55.23,15.43a3.25,3.25,0,0,0-1.18,2.5l0,2.57a3.1,3.1,0,1,0,6.2,0V18Z"/><path class="cls-5" d="M60.38,26.72,58,27a.59.59,0,0,1-.65-.51l-.61-5.93a.58.58,0,0,1,.53-.64l2.36-.24a.59.59,0,0,1,.65.51l.61,5.93A.6.6,0,0,1,60.38,26.72Z"/><path class="cls-14" d="M60.32,18.15l.09,2.43a3.19,3.19,0,0,1-.72,2.28,7.53,7.53,0,0,1-1.26,1c-.65.39-2.24.21-2.91.18a1.68,1.68,0,0,1-1.36-1.33l-.08-2.12a12.62,12.62,0,0,0,3.48,0c1.1-.24,1.2-.47,1.54-1.54l.67-2.14Z"/><path class="cls-15" d="M56.86,21.25c0,.2-.14.45-.63.52,0,0-.72.09-.66-.39Z"/><path class="cls-14" d="M56.78,17.77h.7a.18.18,0,0,1,.19.18.18.18,0,0,1-.19.19h-.7a.19.19,0,1,1,0-.37Z"/><path class="cls-14" d="M54,17.77h.7a.18.18,0,0,1,.19.18.18.18,0,0,1-.19.19H54a.19.19,0,1,1,0-.37Z"/><path class="cls-16" d="M54.49,18.63c0,.18.09.33.21.33s.22-.15.22-.33-.1-.33-.22-.33S54.49,18.45,54.49,18.63Z"/><path class="cls-16" d="M57.12,18.68c0,.18.1.33.22.33s.22-.15.22-.33-.1-.33-.22-.33S57.12,18.5,57.12,18.68Z"/><path class="cls-5" d="M55.34,15.38a4.73,4.73,0,0,1,3.46-.29l-.79.67Z"/><path class="cls-14" d="M57.81,15.55c0-.42.5-.76.78-.79a2.6,2.6,0,0,1,2.87,2.12l-2.07,1.86s0-.55,0-.55a2.12,2.12,0,0,0-.92-1.27,1.67,1.67,0,0,1-.68-1.32Z"/><path class="cls-17" d="M55.11,17.47h1.08a.09.09,0,0,0,.1-.1.1.1,0,0,0-.1-.1H55.11a.1.1,0,0,0-.1.1A.09.09,0,0,0,55.11,17.47Z"/><path class="cls-17" d="M54.81,17H56.9a.1.1,0,0,0,.1-.1.11.11,0,0,0-.1-.1H54.81a.11.11,0,0,0-.1.1A.1.1,0,0,0,54.81,17Z"/><path class="cls-17" d="M55.28,19.8l.61-1.42.36,1.7a.29.29,0,0,1-.36.34l-.36-.11A.38.38,0,0,1,55.28,19.8Z"/><path class="cls-7" d="M55.06,55.45a.12.12,0,0,1-.12-.12V50.08a.47.47,0,0,0-.47-.47H52.06a.12.12,0,0,1-.12-.13.12.12,0,0,1,.12-.12h2.41a.72.72,0,0,1,.72.72v5.25A.13.13,0,0,1,55.06,55.45Z"/><path class="cls-9" d="M62.14,25.84a177.23,177.23,0,0,1,2.47,23.43l0-22L64,26.37A8.28,8.28,0,0,0,62.14,25.84Z"/><rect class="cls-12" x="56.48" y="24.4" width="5.06" height="2.76" rx="0.81" transform="translate(-1.98 5.1) rotate(-4.87)"/><polygon class="cls-5" points="40.45 79.25 40.41 83.23 42.06 83.37 42.66 82.53 42.54 82.36 42.66 79.44 40.45 79.25"/><path class="cls-12" d="M44.39,83l-1.85-.6c-.6,1-1.63.83-2.14-.07L40,83.88c0,.11.1.21.28.21H44C44.94,84.07,45.26,83.24,44.39,83Z"/><polygon class="cls-5" points="20.87 72.9 17.91 75.56 18.92 76.88 19.95 76.74 20 76.55 22.23 74.65 20.87 72.9"/><path class="cls-12" d="M20.81,78.31,20,76.54c-1.18.27-1.72-.63-1.4-1.62l-1.47.75c-.1,0-.09.22,0,.35l2.53,2.74C20.36,79.47,21.19,79.14,20.81,78.31Z"/><path class="cls-18" d="M26,54.4a1.33,1.33,0,0,1-.3-.49.68.68,0,0,1,0-.2c0-.41,0-.82,0-1.22,0-.05,0-.12.07-.1a.46.46,0,0,1,.1.29v.14c0,.2,0,.4,0,.61a1.12,1.12,0,0,0,0,.41.24.24,0,0,0,.09.13A.12.12,0,0,0,26,54a.16.16,0,0,0,.05-.1,4.78,4.78,0,0,0,.06-.53c0-.25.05-.5.08-.75l0-.32a2.41,2.41,0,0,0,0-.6A2.3,2.3,0,0,0,26,51l-1.35.12a.23.23,0,0,0,0,.11,1.05,1.05,0,0,1-.05.7c-.08.23-.19.44-.26.66a1,1,0,0,0,0,.71,1.32,1.32,0,0,0,.24.29c.28.29.57.57.87.83a1.66,1.66,0,0,0,.3.22.23.23,0,0,0,.24,0C26.09,54.61,26,54.49,26,54.4Z"/><path class="cls-18" d="M47.48,52a1.42,1.42,0,0,0-.17-.55,1,1,0,0,0-.14-.15l-.88-.85s-.1-.06-.12,0a.44.44,0,0,0,.15.27l.1.09.47.39a1.07,1.07,0,0,1,.29.31.22.22,0,0,1,0,.14.13.13,0,0,1-.09.12.25.25,0,0,1-.11,0c-.15-.09-.29-.19-.44-.3L46,51l-.25-.19a2.21,2.21,0,0,1-.46-.4,2.06,2.06,0,0,1-.31-.61l1-.93.08.09a1,1,0,0,0,.55.43c.22.09.45.14.67.24a.92.92,0,0,1,.51.48,1.59,1.59,0,0,1,.07.38c0,.39,0,.79,0,1.19a1.2,1.2,0,0,1,0,.38c0,.08-.07.17-.14.18S47.5,52.08,47.48,52Z"/><path class="cls-19" d="M101.3,67.84a3.5,3.5,0,0,1,.64-2.72.2.2,0,0,1,.36.08l.28,1.91Z"/><path class="cls-19" d="M106.27,67.81s-.25,2.61-4.08,2.35Z"/><path class="cls-20" d="M102.56,83.54a.33.33,0,1,0,.33-.31A.32.32,0,0,0,102.56,83.54Z"/><path class="cls-20" d="M102.23,83.55a.31.31,0,0,0,.33.3.32.32,0,0,0,.33-.31.31.31,0,0,0-.33-.3A.32.32,0,0,0,102.23,83.55Z"/><path class="cls-20" d="M101.93,83.55a.31.31,0,0,0,.33.3.31.31,0,1,0,0-.61A.32.32,0,0,0,101.93,83.55Z"/><path class="cls-19" d="M92.16,74.63s2.34,1.79,0,5c-.56.74-.35,3-.27,3.82,0,0-.11.16-.12.12L89.43,77Z"/><path class="cls-19" d="M101,76.5l1.39,7.19h-.32l-2.34-4.06s-1.4-2-.57-3.36Z"/><path class="cls-19" d="M100.68,70a1.83,1.83,0,0,0,2.55.45c.83-.58,1.87-1.83,1.29-2.66s-2.56-.92-3.39-.34A1.83,1.83,0,0,0,100.68,70Z"/><path class="cls-19" d="M105.74,66.88a.68.68,0,0,1,.39.09.56.56,0,0,1,.21.46,1.62,1.62,0,0,1-.68,1.18,19.76,19.76,0,0,1-2,1.32c-.21.15-.25.32-.5.39a1.93,1.93,0,0,1-.49.07.59.59,0,0,1-.23,0,.57.57,0,0,1-.29-.22,1.62,1.62,0,0,1,0-1.7,3.05,3.05,0,0,1,1.17-1.22,1.39,1.39,0,0,1,.54-.09,4.41,4.41,0,0,0,.88-.11A4.65,4.65,0,0,1,105.74,66.88Z"/><path class="cls-21" d="M105.53,66.79l.31-.06a.32.32,0,0,1,.34.2A.41.41,0,0,1,105.53,66.79Z"/><path class="cls-19" d="M105.53,66.79c.08.27.44.3.67.19l.07.17-2,.72a.75.75,0,0,1-.93-.4l-.12-.29Z"/><path class="cls-21" d="M102.54,67.93a.3.3,0,0,0,.42,0,.3.3,0,0,0-.43-.41A.3.3,0,0,0,102.54,67.93Z"/><path class="cls-19" d="M102.86,70.81c.06.89.3,7-5.15,8.34a13.37,13.37,0,0,1-7.59-1.43C95.27,79.55,101.23,75.78,102.86,70.81Z"/><path class="cls-19" d="M89.61,77.52l-.14-.06.14.06-2.58,0s-1-3,1.86-3.72l7.65-1.27s2.94-.18,4-4l2.31,2.16a1,1,0,0,0,0,.11c-1.63,5-7.59,8.74-12.74,6.91l-.34-.2Z"/><path class="cls-19" d="M79.19,71.69a35.5,35.5,0,0,1,6.22,1.77,23.28,23.28,0,0,0-5.41.08,19.19,19.19,0,0,1-1.88-2Z"/><path class="cls-19" d="M86.91,74.12l.75.38S85,78.14,80,73.54a23.28,23.28,0,0,1,5.41-.08C85.91,73.66,86.42,73.88,86.91,74.12Z"/><path class="cls-19" d="M90.8,76.35s.83,2.83-3,4c-1.12.34-1.94,2.46-2.42,3.22-.15.24-.33.22-.26-.05l2-6.83Z"/><path class="cls-19" d="M99.13,75.92l-3.52,7.7-.3-.12.54-4.9s0-2.49,1.73-3.58Z"/><path class="cls-19" d="M100.53,68.83a4.59,4.59,0,0,1,0-3.63.26.26,0,0,1,.49,0l1,2.31Z"/><path class="cls-19" d="M100.74,68.35a3.43,3.43,0,0,1,0-2.72.19.19,0,0,1,.36,0l.47,1.13a1,1,0,0,1-.23,1Z"/><path class="cls-22" d="M95.86,83.61a.31.31,0,0,0,.2.4.32.32,0,0,0,.42-.17.31.31,0,0,0-.2-.4A.32.32,0,0,0,95.86,83.61Z"/><path class="cls-22" d="M95.55,83.49a.33.33,0,0,0,.2.41.33.33,0,0,0,.42-.17.33.33,0,0,0-.2-.41A.33.33,0,0,0,95.55,83.49Z"/><path class="cls-22" d="M95.27,83.39a.31.31,0,0,0,.2.4.32.32,0,0,0,.42-.17.31.31,0,0,0-.2-.4A.32.32,0,0,0,95.27,83.39Z"/><path class="cls-20" d="M92.34,83.39a.33.33,0,0,0,.61-.24.31.31,0,0,0-.42-.16A.3.3,0,0,0,92.34,83.39Z"/><path class="cls-20" d="M92,83.52a.32.32,0,0,0,.42.16.31.31,0,1,0-.23-.57A.32.32,0,0,0,92,83.52Z"/><path class="cls-20" d="M91.76,83.63a.33.33,0,0,0,.61-.25.33.33,0,0,0-.61.25Z"/><path class="cls-22" d="M85.72,83.67a.32.32,0,0,0,.34.3.31.31,0,0,0,.32-.31.31.31,0,0,0-.33-.3A.32.32,0,0,0,85.72,83.67Z"/><path class="cls-22" d="M85.39,83.67a.33.33,0,0,0,.66,0,.31.31,0,0,0-.33-.3A.32.32,0,0,0,85.39,83.67Z"/><path class="cls-22" d="M85.1,83.67a.33.33,0,0,0,.66,0,.34.34,0,0,0-.34-.31A.31.31,0,0,0,85.1,83.67Z"/><path class="cls-4" d="M102.41,72,99.9,70.86a.59.59,0,1,1,.48-1.08l2.51,1.1a.6.6,0,0,1-.48,1.09Z"/><path class="cls-23" d="M36.11,45.92c-1.83-.15-3.82.89-4,2.89s-.28,3.61-.38,5c-.61,8.67-.62,8.84-5.27,13l-1.63,1.46c-1.42,1.26-2.87,2.55-4.26,3.92a1,1,0,0,0,0,1.46l2.56,2.49a1,1,0,0,0,1.37,0c1.88-1.57,3.49-2.82,4.86-3.88,3-2.35,5-3.91,6.33-6.18,2.22-3.89,3.51-8.88,4.06-15.7A4,4,0,0,0,36.11,45.92Z"/><path class="cls-24" d="M39.32,69.19c0,.74,0,1.49,0,2.23,0,2.49,0,5,.14,7.61a.89.89,0,0,0,.89.83h3.48A.9.9,0,0,0,44.7,79c.14-3.35.5-6,.67-8.18.3-4,.5-6.57-.31-9.15-1.4-4.42-4.24-8.91-9-14.14A4.08,4.08,0,0,0,32.17,46a4.38,4.38,0,0,0-3.12,2.86,3.21,3.21,0,0,0,.6,3.2C31,53.59,32.16,54.85,33.16,56,39.11,62.42,39.35,62.68,39.32,69.19Z"/><path class="cls-25" d="M36.53,35.93l.2-.24a2.36,2.36,0,0,0,.37,0,10.37,10.37,0,0,0,2.61-.74l.24-.11a19.28,19.28,0,0,0,6.3,13.84c.83.78-.66,2.4-1.53,1.67-5.65-4.78-8.29-9.7-9.38-13.69A2,2,0,0,0,36.53,35.93Z"/><path class="cls-25" d="M39.91,32.79c0-.06-.67-2-1-2.92a10.71,10.71,0,0,0-2.24-3.26c-2.31-1.5-4.5-.57-6,.55-3.73,1-1.77,6-1.77,6a14.48,14.48,0,0,1-.09,3.08,16.61,16.61,0,0,0-.12,2c.06,3.82-2.66,6.67.26,12.76a10.33,10.33,0,0,0,4.84,1.16,13.88,13.88,0,0,0,5.89-1.51c0-2.06.57-1.63-.28-6.69a15.92,15.92,0,0,1-.5-3.57l0-.35A5.88,5.88,0,0,1,39.38,38C40.46,37.39,40.45,35.48,39.91,32.79Z"/><path class="cls-25" d="M25.85,32.6l4,1a33.46,33.46,0,0,1,1.71-3.2l-2.4-2.25A14.61,14.61,0,0,0,25.85,32.6Z"/><path class="cls-25" d="M29.84,33.61l0,0c-.61,1.29-1.18,2.58-1.75,3.79a15.72,15.72,0,0,0-1.6,6.23,21.36,21.36,0,0,0-.07,6.82c.17,1.16-2.06,1.52-2.29.38-1.7-8.31-.24-14.38,1.75-18.28Z"/><path class="cls-26" d="M37.51,51.4a60.82,60.82,0,0,1-.75-10.35c-.06-4.24-.12-8.63-1.41-12.9l.24-.07c1.3,4.3,1.36,8.7,1.42,13a60.28,60.28,0,0,0,.75,10.31Z"/><path class="cls-27" d="M35.57,29H33.16a1.56,1.56,0,1,1,0-3.12h2.41a1.56,1.56,0,1,1,0,3.12Z"/><path class="cls-27" d="M32.07,37.84l-1.55-2.57A7.29,7.29,0,0,0,32,34.21a1.47,1.47,0,0,0,.49-.93,3.21,3.21,0,0,0-.33-1.1,6.1,6.1,0,0,1-.55-2.27,3.89,3.89,0,0,1,2.62-3.77l1,2.81a.9.9,0,0,0-.67,1A3.46,3.46,0,0,0,35,31a5.72,5.72,0,0,1,.55,2.3,4.45,4.45,0,0,1-1.35,3A10,10,0,0,1,32.07,37.84Z"/><path class="cls-14" d="M38.36,17.2c-.16-.48-.9-.81-1.1-.88a5.82,5.82,0,0,0-.4-.45,5,5,0,0,0-.51-.39,2.69,2.69,0,0,0-2.13-.26c-.8.26-.54.54-1.14.89s-1.43,0-2.25,1.21A2.87,2.87,0,0,0,30.32,19a4.21,4.21,0,0,1-.26.73c-.2.25-.48.43-.69.67a2.43,2.43,0,0,0-.47,2.09,1.84,1.84,0,0,0,.52.86,4.12,4.12,0,0,1,.72,1.19,1.72,1.72,0,0,0,1.48,1.18,1.94,1.94,0,0,0,2-1.33c.13-.49.06-1,.38-1.44s1.1-.55,1.43-1,0-1.23.09-1.85a2.37,2.37,0,0,1,1-1.62A1.41,1.41,0,0,1,37,18.2c.42-.16,1,.43,1.5.42A2,2,0,0,0,38.36,17.2Z"/><path class="cls-5" d="M36.75,19.43H33.52a.27.27,0,0,1-.26-.27V17.44a.51.51,0,0,1,.52-.51h3a1.25,1.25,0,0,1,0,2.5Z"/><path class="cls-5" d="M37.48,17.13a2.91,2.91,0,0,1,1.12,2.3v2.36a2.94,2.94,0,0,1-5.88,0V19.48Z"/><path class="cls-5" d="M33.21,27.34H35a.46.46,0,0,0,.45-.47l0-4.87a.46.46,0,0,0-.45-.47h-1.8a.46.46,0,0,0-.45.47v4.87A.47.47,0,0,0,33.21,27.34Z"/><path class="cls-15" d="M36.05,22.68c0,.21.13.46.58.53,0,0,.65.09.59-.4Z"/><path class="cls-14" d="M35.83,19.51h-.72a.19.19,0,0,0,0,.38h.72a.19.19,0,1,0,0-.38Z"/><path class="cls-14" d="M38.44,19.51h-.55a.2.2,0,0,0,0,.38h.55a.2.2,0,0,0,0-.38Z"/><path class="cls-17" d="M37.83,18.71H35.71a.09.09,0,0,1-.1-.1.1.1,0,0,1,.1-.1h2.12a.11.11,0,0,1,.1.1A.1.1,0,0,1,37.83,18.71Z"/><ellipse class="cls-16" cx="35.51" cy="20.38" rx="0.21" ry="0.33"/><polygon class="cls-16" points="35.51 20.05 35.87 20.05 35.65 20.28 35.51 20.05"/><path class="cls-16" d="M38.29,20.38c0,.18-.1.33-.21.33s-.22-.15-.22-.33.1-.33.22-.33S38.29,20.2,38.29,20.38Z"/><polygon class="cls-16" points="38.08 20.05 38.44 20.05 38.22 20.28 38.08 20.05"/><path class="cls-5" d="M32.77,20.53a1,1,0,1,0,.82,1A.91.91,0,0,0,32.77,20.53Z"/><path class="cls-14" d="M33.8,19.79c-.35.53-.54,1.15-.9,1.67a2.86,2.86,0,0,1-.89.84,1.31,1.31,0,0,1-1.52,0,1.28,1.28,0,0,1-.19-1.4c.37-1,1.31-1.62,1.76-2.56.34-.68.43-1.54,1-2a2.08,2.08,0,0,1,1.34-.29,11.69,11.69,0,0,1,1.66.26l1.2.26a.35.35,0,0,1,.13.05.32.32,0,0,1,.08.14c.07.19.34.65.29.85s-.34.23-.53.24A4.49,4.49,0,0,0,33.8,19.79Z"/><path class="cls-17" d="M37.42,21.57l-.48-1.11-.28,1.32a.23.23,0,0,0,.28.27l.28-.08A.3.3,0,0,0,37.42,21.57Z"/></g></g></svg>