<?xml version="1.0" standalone="no"?>
<!DOCTYPE svg PUBLIC "-//W3C//DTD SVG 20010904//EN"
 "http://www.w3.org/TR/2001/REC-SVG-20010904/DTD/svg10.dtd">
<svg version="1.0" xmlns="http://www.w3.org/2000/svg"
 width="912.000000pt" height="912.000000pt" viewBox="0 0 912.000000 912.000000"
 preserveAspectRatio="xMidYMid meet">
<metadata>
Created by potrace 1.11, written by Peter Selinger 2001-2013
</metadata>
<g transform="translate(0.000000,912.000000) scale(0.100000,-0.100000)"
fill="#000000" stroke="none">
<path d="M1898 8175 c-1 -1 -25 -5 -53 -8 -27 -4 -62 -9 -76 -11 -14 -3 -39
-8 -55 -10 -16 -2 -36 -6 -44 -9 -8 -4 -26 -9 -40 -11 -14 -3 -38 -9 -55 -14
l-30 -9 1 -184 c2 -297 12 -668 19 -678 3 -5 1 -12 -5 -16 -6 -4 -8 -11 -4
-16 3 -6 8 -79 10 -162 1 -84 6 -246 9 -362 7 -252 14 -531 20 -795 2 -107 5
-195 5 -195 1 0 3 -72 5 -160 4 -155 8 -325 20 -795 4 -124 8 -292 10 -375 4
-182 3 -167 13 -161 5 3 15 31 22 63 8 32 14 60 15 63 1 3 5 19 10 35 4 17 30
111 57 210 28 99 52 187 54 195 31 125 86 327 94 350 5 14 12 36 14 50 3 14
17 68 31 120 15 52 29 103 30 113 2 9 6 21 9 25 3 5 7 20 10 34 2 15 23 93 46
175 23 81 44 157 46 168 6 24 7 26 23 85 7 25 15 52 17 60 2 8 10 40 19 70 9
30 19 69 22 85 3 17 9 38 14 48 5 9 7 17 5 17 -3 0 1 18 9 40 8 22 12 40 9 40
-2 0 2 16 10 35 8 19 17 50 20 70 4 20 10 44 15 53 5 9 11 31 14 47 2 17 14
63 27 104 12 41 23 81 26 90 2 9 8 34 14 56 6 22 13 51 16 65 3 13 9 29 15 36
5 6 6 13 4 16 -3 3 0 18 6 34 6 16 13 38 15 49 2 11 10 45 19 75 9 30 18 66
21 79 3 13 16 63 30 110 14 47 28 100 31 116 3 17 9 35 14 41 5 6 6 13 3 16
-3 3 2 22 10 42 8 20 15 37 14 39 -2 2 32 136 40 157 3 8 7 24 9 35 2 11 13
51 24 90 12 38 23 79 25 92 2 12 9 34 14 48 5 14 7 25 4 25 -4 0 -1 7 6 15 7
8 10 15 7 15 -4 0 0 18 8 40 8 22 12 40 10 40 -2 0 3 16 11 35 14 34 13 35
-13 49 -49 25 -252 79 -343 91 -19 3 -46 8 -60 11 -26 6 -366 15 -372 9z"/>
<path d="M6918 8175 c-2 -1 -30 -6 -63 -9 -33 -4 -67 -9 -75 -11 -16 -4 -53
-12 -110 -21 -19 -3 -38 -8 -42 -10 -3 -2 -44 -15 -90 -28 -46 -14 -96 -30
-113 -37 -16 -7 -35 -13 -41 -14 -7 -2 -58 -25 -115 -51 -185 -86 -338 -179
-494 -298 -48 -37 -4089 -4075 -4084 -4081 89 -97 2587 -2586 2615 -2606 74
-51 140 -72 234 -73 47 -1 102 2 124 7 39 7 107 35 116 48 3 3 19 13 35 22 35
18 3835 3818 3835 3834 0 7 6 18 13 25 15 14 127 177 127 183 0 2 13 23 29 47
24 37 99 186 154 308 35 78 98 288 112 370 3 19 8 48 11 64 4 16 7 43 8 61 2
17 5 35 8 41 13 21 1 372 -16 464 -10 52 -19 97 -21 100 -2 4 -6 19 -9 35 -9
50 -67 217 -98 282 -16 34 -28 64 -26 66 2 2 -2 10 -8 18 -7 8 -26 41 -44 74
-46 85 -149 238 -212 314 -156 188 -293 324 -458 453 -41 32 -80 62 -86 68
-25 19 -161 105 -204 128 -175 94 -358 165 -490 191 -30 6 -66 14 -80 16 -14
3 -41 8 -60 11 -38 6 -376 14 -382 9z"/>
<path d="M1290 8002 c-41 -20 -81 -42 -88 -49 -7 -7 -17 -13 -22 -13 -22 0
-260 -162 -356 -242 -37 -31 -249 -241 -299 -298 -75 -84 -104 -127 -100 -146
4 -18 134 -399 136 -399 0 0 2 -7 4 -15 3 -15 141 -421 152 -450 3 -8 7 -19 9
-25 1 -5 26 -77 54 -160 29 -82 53 -154 54 -160 2 -5 6 -17 9 -25 6 -14 101
-295 227 -670 27 -80 103 -305 170 -500 67 -195 146 -429 177 -520 30 -91 57
-167 59 -169 2 -2 1 92 -1 210 -10 391 -14 562 -20 784 -4 121 -8 293 -10 382
-1 88 -6 166 -9 172 -4 6 -2 11 4 11 6 0 8 5 4 11 -4 7 -8 84 -10 173 -1 88
-5 262 -8 386 -4 124 -9 317 -12 430 -3 113 -7 273 -9 355 -2 83 -7 251 -10
375 -3 124 -8 288 -10 365 -2 77 -4 159 -4 183 -1 23 -4 42 -8 42 -5 -1 -42
-17 -83 -38z"/>
<path d="M2806 7853 c-44 -165 -45 -167 -50 -193 -3 -11 -7 -24 -10 -28 -3 -5
-7 -19 -10 -33 -10 -49 -15 -67 -26 -105 -16 -55 -79 -286 -135 -496 -3 -10
-7 -26 -10 -35 -2 -10 -11 -43 -19 -73 -62 -234 -98 -367 -103 -380 -3 -8 -7
-19 -8 -25 -2 -5 -10 -37 -19 -70 -10 -33 -23 -85 -31 -115 -8 -30 -44 -163
-80 -295 -37 -132 -68 -247 -70 -255 -2 -8 -13 -51 -25 -95 -26 -95 -58 -213
-94 -350 -15 -55 -31 -114 -37 -131 -5 -17 -11 -40 -14 -50 -7 -32 -114 -427
-124 -459 -6 -16 -12 -41 -15 -55 -3 -14 -15 -59 -26 -100 -12 -41 -23 -79
-24 -85 -1 -5 -5 -16 -9 -22 -5 -7 -6 -13 -4 -13 3 0 -6 -36 -18 -80 -22 -77
-19 -110 4 -52 6 15 20 41 31 57 11 17 23 37 27 45 8 17 186 327 214 374 10
17 23 40 29 51 5 11 23 43 39 70 17 28 39 66 49 85 11 19 45 80 77 135 58 101
92 160 129 226 12 20 35 61 52 90 17 30 46 81 64 114 18 33 41 72 52 87 10 14
18 29 18 32 0 3 14 29 32 58 17 29 48 82 68 118 20 36 47 83 60 105 13 22 30
54 38 70 9 17 18 32 21 35 3 3 11 14 17 25 47 86 81 146 101 177 12 21 23 40
23 44 0 3 8 18 19 32 10 15 32 52 48 82 17 30 38 71 49 90 10 19 22 37 27 38
4 2 7 8 7 12 0 5 14 33 31 62 18 29 41 69 52 88 34 61 149 264 167 295 10 17
71 124 137 240 l121 210 -127 125 c-70 69 -136 132 -147 140 -106 83 -154 117
-235 167 -96 60 -271 153 -287 153 -5 0 -26 -62 -46 -137z"/>
<path d="M3697 7167 c-65 -114 -89 -156 -128 -224 -12 -21 -25 -42 -29 -48 -4
-5 -21 -35 -37 -65 -17 -30 -55 -99 -87 -152 -31 -54 -56 -102 -56 -108 0 -5
-4 -10 -10 -10 -5 0 -10 -4 -10 -10 0 -5 -20 -44 -45 -86 -25 -41 -45 -77 -45
-79 0 -1 -29 -53 -65 -114 -36 -62 -79 -138 -96 -169 -18 -31 -37 -60 -43 -64
-6 -4 -7 -8 -3 -8 4 0 -6 -20 -22 -44 -17 -24 -28 -46 -25 -48 2 -3 -2 -11
-11 -18 -8 -7 -15 -17 -15 -22 0 -5 -16 -34 -35 -64 -19 -30 -35 -57 -35 -59
0 -3 -17 -34 -39 -69 -21 -35 -44 -77 -52 -95 -8 -17 -17 -31 -21 -31 -5 0 -8
-4 -8 -10 0 -5 -22 -47 -50 -94 -27 -47 -50 -89 -50 -95 0 -6 -4 -11 -9 -11
-5 0 -13 -9 -16 -21 -9 -26 -76 -142 -88 -150 -5 -3 -7 -8 -6 -10 3 -4 -27
-59 -83 -152 -15 -26 -28 -49 -28 -51 0 -2 -30 -55 -66 -117 -37 -63 -74 -127
-84 -144 -104 -183 -188 -330 -212 -375 -17 -30 -35 -58 -42 -62 -6 -4 -7 -8
-3 -8 5 0 0 -12 -11 -27 -10 -16 -33 -55 -51 -88 -28 -52 136 109 1213 1187
685 685 1246 1249 1246 1253 0 7 -667 675 -674 675 -2 0 -34 -51 -69 -113z"/>
<path d="M289 7090 c-7 -14 -19 -34 -26 -45 -36 -57 -145 -290 -167 -355 -26
-78 -55 -181 -61 -215 -2 -11 -6 -35 -9 -52 -19 -102 -24 -175 -21 -323 3
-152 7 -204 20 -270 3 -14 8 -36 10 -50 10 -51 13 -66 26 -110 7 -25 13 -49
15 -55 19 -79 86 -246 143 -360 52 -105 168 -298 182 -303 5 -2 9 -8 9 -13 0
-29 170 -212 539 -581 230 -230 416 -420 413 -423 -3 -3 0 -5 6 -5 17 0 17 3
-44 176 -30 87 -57 166 -59 174 -2 8 -27 83 -55 165 -29 83 -54 159 -57 170
-2 11 -9 29 -13 40 -5 11 -18 47 -29 80 -11 33 -65 193 -121 355 -55 162 -103
303 -105 312 -2 9 -8 25 -13 35 -6 10 -10 21 -11 26 -2 17 -14 63 -20 72 -3 6
-6 12 -7 15 0 3 -3 12 -7 20 -3 8 -45 132 -92 275 -48 143 -90 269 -95 280 -4
11 -13 34 -18 50 -6 17 -13 39 -18 50 -4 11 -8 25 -9 30 -2 6 -28 85 -60 175
-31 91 -58 170 -59 175 -2 6 -6 17 -9 25 -3 8 -24 71 -47 140 -23 69 -44 132
-47 140 -4 8 -7 18 -8 23 -2 4 -3 8 -5 10 -1 1 -3 9 -5 17 -2 8 -14 46 -28 85
-23 68 -24 69 -38 45z"/>
</g>
</svg>
